<svg xmlns="http://www.w3.org/2000/svg" xmlns:xlink="http://www.w3.org/1999/xlink" width="140" zoomAndPan="magnify" viewBox="0 0 104.88 30.000001" height="40" preserveAspectRatio="xMidYMid meet" version="1.0"><defs><clipPath id="b00f67f276"><path d="M 3.664062 6.296875 L 15 6.296875 L 15 21 L 3.664062 21 Z M 3.664062 6.296875 " clip-rule="nonzero"/></clipPath><clipPath id="f2f7d99d80"><path d="M 62 6.296875 L 74 6.296875 L 74 21 L 62 21 Z M 62 6.296875 " clip-rule="nonzero"/></clipPath><clipPath id="37864e8c14"><path d="M 87 6.296875 L 97 6.296875 L 97 21 L 87 21 Z M 87 6.296875 " clip-rule="nonzero"/></clipPath><clipPath id="3151b35ac9"><path d="M 90 11 L 94 11 L 94 22.992188 L 90 22.992188 Z M 90 11 " clip-rule="nonzero"/></clipPath><clipPath id="d35eca056a"><path d="M 98 14 L 101.648438 14 L 101.648438 18 L 98 18 Z M 98 14 " clip-rule="nonzero"/></clipPath><clipPath id="ae20f9bdb9"><path d="M 97 13 L 101.648438 13 L 101.648438 19 L 97 19 Z M 97 13 " clip-rule="nonzero"/></clipPath><clipPath id="459255d61c"><path d="M 92 21 L 95 21 L 95 22.992188 L 92 22.992188 Z M 92 21 " clip-rule="nonzero"/></clipPath><clipPath id="8a4abacca3"><path d="M 92 20 L 96 20 L 96 22.992188 L 92 22.992188 Z M 92 20 " clip-rule="nonzero"/></clipPath></defs><g clip-path="url(#b00f67f276)"><path fill="#283149" d="M 10.441406 20.101562 C 8.996094 20.101562 7.777344 19.824219 6.785156 19.269531 C 5.792969 18.71875 5.039062 17.925781 4.53125 16.898438 C 4.023438 15.867188 3.769531 14.640625 3.769531 13.21875 C 3.769531 11.808594 4.027344 10.582031 4.539062 9.542969 C 5.058594 8.507812 5.804688 7.710938 6.785156 7.148438 C 7.761719 6.589844 8.941406 6.308594 10.308594 6.308594 C 11.0625 6.308594 11.800781 6.40625 12.523438 6.605469 C 13.246094 6.804688 13.914062 7.125 14.53125 7.566406 C 14.746094 7.71875 14.867188 7.90625 14.898438 8.132812 C 14.929688 8.355469 14.890625 8.5625 14.785156 8.761719 C 14.679688 8.960938 14.523438 9.089844 14.324219 9.160156 C 14.121094 9.230469 13.898438 9.1875 13.648438 9.039062 C 13.15625 8.695312 12.640625 8.441406 12.101562 8.285156 C 11.558594 8.128906 10.960938 8.046875 10.308594 8.046875 C 8.835938 8.046875 7.71875 8.492188 6.953125 9.390625 C 6.1875 10.289062 5.800781 11.5625 5.800781 13.214844 C 5.800781 14.90625 6.191406 16.191406 6.980469 17.066406 C 7.761719 17.945312 8.941406 18.382812 10.515625 18.382812 C 11.46875 18.382812 12.417969 18.226562 13.359375 17.90625 L 13.359375 14.304688 L 10.925781 14.304688 C 10.386719 14.304688 10.117188 14.050781 10.117188 13.542969 C 10.117188 13.058594 10.386719 12.816406 10.925781 12.816406 L 14.1875 12.816406 C 14.730469 12.816406 15 13.09375 15 13.640625 L 15 18.445312 C 15 18.929688 14.824219 19.242188 14.472656 19.382812 C 13.929688 19.597656 13.296875 19.769531 12.566406 19.90625 C 11.84375 20.035156 11.132812 20.101562 10.441406 20.101562 Z M 10.441406 20.101562 " fill-opacity="1" fill-rule="nonzero"/></g><path fill="#283149" d="M 21.078125 20.101562 C 18.851562 20.101562 17.738281 18.847656 17.738281 16.34375 L 17.738281 11.460938 C 17.738281 10.8125 18.050781 10.488281 18.679688 10.488281 C 19.320312 10.488281 19.640625 10.8125 19.640625 11.460938 L 19.640625 16.363281 C 19.640625 17.113281 19.792969 17.664062 20.09375 18.019531 C 20.394531 18.378906 20.871094 18.554688 21.527344 18.554688 C 22.242188 18.554688 22.824219 18.3125 23.269531 17.832031 C 23.714844 17.347656 23.9375 16.703125 23.9375 15.886719 L 23.9375 11.460938 C 23.9375 10.8125 24.257812 10.488281 24.898438 10.488281 C 25.527344 10.488281 25.84375 10.8125 25.84375 11.460938 L 25.84375 19.089844 C 25.84375 19.738281 25.535156 20.0625 24.917969 20.0625 C 24.300781 20.0625 23.996094 19.738281 23.996094 19.089844 L 23.996094 18.441406 C 23.691406 18.992188 23.292969 19.402344 22.789062 19.683594 C 22.289062 19.964844 21.71875 20.101562 21.078125 20.101562 Z M 21.078125 20.101562 " fill-opacity="1" fill-rule="nonzero"/><path fill="#283149" d="M 29.484375 20.0625 C 28.84375 20.0625 28.523438 19.738281 28.523438 19.089844 L 28.523438 11.460938 C 28.523438 10.8125 28.832031 10.488281 29.449219 10.488281 C 30.0625 10.488281 30.371094 10.8125 30.371094 11.460938 L 30.371094 12.285156 C 30.625 11.710938 31.003906 11.273438 31.515625 10.96875 C 32.023438 10.664062 32.644531 10.484375 33.371094 10.433594 C 33.835938 10.394531 34.085938 10.648438 34.125 11.195312 C 34.175781 11.753906 33.902344 12.058594 33.3125 12.109375 L 32.953125 12.148438 C 31.285156 12.316406 30.445312 13.183594 30.445312 14.761719 L 30.445312 19.089844 C 30.445312 19.738281 30.125 20.0625 29.484375 20.0625 Z M 29.484375 20.0625 " fill-opacity="1" fill-rule="nonzero"/><path fill="#283149" d="M 36.535156 20.0625 C 35.90625 20.0625 35.59375 19.738281 35.59375 19.089844 L 35.59375 11.460938 C 35.59375 10.8125 35.902344 10.488281 36.515625 10.488281 C 37.132812 10.488281 37.441406 10.8125 37.441406 11.460938 L 37.441406 12.128906 C 37.71875 11.59375 38.101562 11.179688 38.59375 10.890625 C 39.082031 10.597656 39.652344 10.453125 40.304688 10.453125 C 41.710938 10.453125 42.625 11.074219 43.042969 12.320312 C 43.332031 11.734375 43.746094 11.277344 44.285156 10.949219 C 44.828125 10.617188 45.441406 10.453125 46.132812 10.453125 C 48.195312 10.453125 49.226562 11.699219 49.226562 14.191406 L 49.226562 19.089844 C 49.226562 19.738281 48.90625 20.0625 48.265625 20.0625 C 47.636719 20.0625 47.320312 19.738281 47.320312 19.089844 L 47.320312 14.285156 C 47.320312 13.5 47.1875 12.917969 46.917969 12.550781 C 46.648438 12.183594 46.207031 11.996094 45.589844 11.996094 C 44.898438 11.996094 44.351562 12.242188 43.949219 12.730469 C 43.546875 13.222656 43.347656 13.886719 43.347656 14.722656 L 43.347656 19.089844 C 43.347656 19.738281 43.03125 20.0625 42.402344 20.0625 C 41.761719 20.0625 41.441406 19.738281 41.441406 19.089844 L 41.441406 14.285156 C 41.441406 13.5 41.3125 12.917969 41.046875 12.550781 C 40.78125 12.183594 40.34375 11.996094 39.726562 11.996094 C 39.035156 11.996094 38.492188 12.242188 38.097656 12.730469 C 37.703125 13.222656 37.503906 13.886719 37.503906 14.722656 L 37.503906 19.089844 C 37.496094 19.738281 37.175781 20.0625 36.535156 20.0625 Z M 36.535156 20.0625 " fill-opacity="1" fill-rule="nonzero"/><path fill="#283149" d="M 56.199219 20.101562 C 54.6875 20.101562 53.5 19.675781 52.636719 18.816406 C 51.769531 17.957031 51.335938 16.785156 51.335938 15.296875 C 51.335938 14.34375 51.527344 13.5 51.910156 12.769531 C 52.292969 12.039062 52.824219 11.46875 53.503906 11.0625 C 54.183594 10.65625 54.964844 10.453125 55.84375 10.453125 C 57.113281 10.453125 58.113281 10.859375 58.839844 11.683594 C 59.566406 12.503906 59.933594 13.628906 59.933594 15.070312 C 59.933594 15.5 59.679688 15.71875 59.179688 15.71875 L 53.183594 15.71875 C 53.320312 17.648438 54.335938 18.617188 56.21875 18.617188 C 56.597656 18.617188 56.992188 18.570312 57.410156 18.476562 C 57.824219 18.378906 58.226562 18.203125 58.617188 17.949219 C 58.878906 17.796875 59.105469 17.742188 59.304688 17.789062 C 59.5 17.832031 59.640625 17.941406 59.726562 18.113281 C 59.8125 18.28125 59.828125 18.476562 59.773438 18.683594 C 59.71875 18.894531 59.566406 19.074219 59.332031 19.230469 C 58.902344 19.523438 58.402344 19.742188 57.832031 19.886719 C 57.257812 20.03125 56.714844 20.101562 56.199219 20.101562 Z M 55.914062 11.804688 C 55.125 11.804688 54.492188 12.054688 54.03125 12.546875 C 53.566406 13.046875 53.28125 13.707031 53.179688 14.53125 L 58.328125 14.53125 C 58.289062 13.664062 58.0625 12.996094 57.648438 12.519531 C 57.238281 12.042969 56.660156 11.804688 55.914062 11.804688 Z M 55.914062 11.804688 " fill-opacity="1" fill-rule="nonzero"/><g clip-path="url(#f2f7d99d80)"><path fill="#283149" d="M 63.191406 20.0625 C 62.539062 20.0625 62.210938 19.726562 62.210938 19.054688 L 62.210938 7.359375 C 62.210938 6.6875 62.539062 6.351562 63.191406 6.351562 C 63.84375 6.351562 64.171875 6.6875 64.171875 7.359375 L 64.171875 12.28125 L 71.621094 12.28125 L 71.621094 7.359375 C 71.621094 6.6875 71.945312 6.351562 72.601562 6.351562 C 73.242188 6.351562 73.5625 6.6875 73.5625 7.359375 L 73.5625 19.054688 C 73.5625 19.726562 73.242188 20.0625 72.601562 20.0625 C 71.945312 20.0625 71.621094 19.726562 71.621094 19.054688 L 71.621094 13.941406 L 64.171875 13.941406 L 64.171875 19.054688 C 64.175781 19.726562 63.84375 20.0625 63.191406 20.0625 Z M 63.191406 20.0625 " fill-opacity="1" fill-rule="nonzero"/></g><path fill="#283149" d="M 79.746094 20.101562 C 77.523438 20.101562 76.410156 18.847656 76.410156 16.34375 L 76.410156 11.460938 C 76.410156 10.8125 76.722656 10.488281 77.351562 10.488281 C 77.992188 10.488281 78.3125 10.8125 78.3125 11.460938 L 78.3125 16.363281 C 78.3125 17.113281 78.460938 17.664062 78.761719 18.019531 C 79.066406 18.378906 79.542969 18.554688 80.199219 18.554688 C 80.914062 18.554688 81.496094 18.3125 81.941406 17.832031 C 82.386719 17.347656 82.613281 16.703125 82.613281 15.886719 L 82.613281 11.460938 C 82.613281 10.8125 82.933594 10.488281 83.574219 10.488281 C 84.203125 10.488281 84.515625 10.8125 84.515625 11.460938 L 84.515625 19.089844 C 84.515625 19.738281 84.207031 20.0625 83.59375 20.0625 C 82.976562 20.0625 82.667969 19.738281 82.667969 19.089844 L 82.667969 18.441406 C 82.367188 18.992188 81.964844 19.402344 81.460938 19.683594 C 80.960938 19.964844 80.386719 20.101562 79.746094 20.101562 Z M 79.746094 20.101562 " fill-opacity="1" fill-rule="nonzero"/><g clip-path="url(#37864e8c14)"><path fill="#283149" d="M 92.132812 20.101562 C 91.441406 20.101562 90.824219 19.945312 90.285156 19.636719 C 89.742188 19.324219 89.335938 18.902344 89.058594 18.367188 L 89.058594 19.089844 C 89.058594 19.738281 88.75 20.0625 88.132812 20.0625 C 87.507812 20.0625 87.191406 19.738281 87.191406 19.089844 L 87.191406 7.324219 C 87.191406 6.675781 87.507812 6.351562 88.132812 6.351562 C 88.777344 6.351562 89.097656 6.675781 89.097656 7.324219 L 89.097656 12.128906 C 89.371094 11.617188 89.777344 11.214844 90.3125 10.90625 C 90.847656 10.601562 91.453125 10.453125 92.132812 10.453125 C 92.949219 10.453125 93.664062 10.648438 94.273438 11.042969 C 94.882812 11.4375 95.351562 11.992188 95.683594 12.710938 C 96.019531 13.429688 96.1875 14.285156 96.1875 15.277344 C 96.1875 16.269531 96.019531 17.128906 95.683594 17.851562 C 95.351562 18.574219 94.878906 19.132812 94.273438 19.519531 C 93.664062 19.910156 92.949219 20.101562 92.132812 20.101562 Z M 92.132812 20.101562 " fill-opacity="1" fill-rule="nonzero"/></g><path fill="#f0a500" d="M 92.285156 13.351562 L 91.234375 13.351562 L 91.234375 14.414062 L 92.285156 14.414062 Z M 92.285156 13.351562 " fill-opacity="1" fill-rule="nonzero"/><path fill="#f0a500" d="M 93.695312 14.707031 L 92.644531 14.707031 L 92.644531 15.769531 L 93.695312 15.769531 Z M 93.695312 14.707031 " fill-opacity="1" fill-rule="nonzero"/><path fill="#f0a500" d="M 90.902344 14.707031 L 89.851562 14.707031 L 89.851562 15.769531 L 90.902344 15.769531 Z M 90.902344 14.707031 " fill-opacity="1" fill-rule="nonzero"/><path fill="#f0a500" d="M 92.285156 15.941406 L 91.234375 15.941406 L 91.234375 17.003906 L 92.285156 17.003906 Z M 92.285156 15.941406 " fill-opacity="1" fill-rule="nonzero"/><path fill="#f0a500" d="M 91.003906 14.855469 L 89.953125 14.855469 L 89.953125 15.917969 L 91.003906 15.917969 Z M 91.003906 14.855469 " fill-opacity="1" fill-rule="nonzero"/><path fill="#283149" d="M 88.859375 15.324219 L 88.859375 15.449219 L 94.660156 15.449219 L 94.660156 15.324219 Z M 88.859375 15.324219 " fill-opacity="1" fill-rule="nonzero"/><path fill="#283149" d="M 99.894531 15.875 L 99.894531 15.683594 L 88.859375 15.71875 L 88.859375 15.910156 Z M 99.894531 15.875 " fill-opacity="1" fill-rule="nonzero"/><path fill="#283149" d="M 97.753906 10.277344 L 97.625 10.121094 L 88.617188 17.714844 L 88.746094 17.871094 Z M 97.753906 10.277344 " fill-opacity="1" fill-rule="nonzero"/><g clip-path="url(#3151b35ac9)"><path fill="#283149" d="M 93.722656 22.277344 L 93.9375 22.210938 L 90.789062 11.253906 L 90.570312 11.316406 Z M 93.722656 22.277344 " fill-opacity="1" fill-rule="nonzero"/></g><g clip-path="url(#d35eca056a)"><path fill="#f0a500" d="M 99.867188 17.503906 C 100.8125 17.503906 101.582031 16.730469 101.582031 15.769531 C 101.582031 14.8125 100.8125 14.035156 99.867188 14.035156 C 98.921875 14.035156 98.152344 14.8125 98.152344 15.769531 C 98.152344 16.730469 98.921875 17.503906 99.867188 17.503906 Z M 99.867188 17.503906 " fill-opacity="1" fill-rule="nonzero"/></g><g clip-path="url(#ae20f9bdb9)"><path stroke-linecap="butt" transform="matrix(0.118706, 0, 0, 0.120097, 3.691416, 6.298419)" fill="none" stroke-linejoin="miter" d="M 810.199821 93.303268 C 818.163282 93.303268 824.645935 86.863187 824.645935 78.861875 C 824.645935 70.893088 818.163282 64.420481 810.199821 64.420481 C 802.23636 64.420481 795.753708 70.893088 795.753708 78.861875 C 795.753708 86.863187 802.23636 93.303268 810.199821 93.303268 Z M 810.199821 93.303268 " stroke="#283149" stroke-width="0.5" stroke-opacity="1" stroke-miterlimit="10"/></g><path stroke-linecap="butt" transform="matrix(0.118706, 0, 0, 0.120097, 3.691416, 6.298419)" fill-opacity="1" fill="#f0a500" fill-rule="nonzero" stroke-linejoin="miter" d="M 792.463022 39.213094 C 796.444752 39.213094 799.669625 35.993054 799.669625 31.992398 C 799.669625 27.991741 796.444752 24.739175 792.463022 24.739175 C 788.448384 24.739175 785.223511 27.991741 785.223511 31.992398 C 785.223511 35.993054 788.448384 39.213094 792.463022 39.213094 Z M 792.463022 39.213094 " stroke="#283149" stroke-width="0.5" stroke-opacity="1" stroke-miterlimit="10"/><g clip-path="url(#459255d61c)"><path fill="#f0a500" d="M 93.761719 22.871094 C 94.238281 22.871094 94.621094 22.484375 94.621094 22.003906 C 94.621094 21.523438 94.238281 21.132812 93.761719 21.132812 C 93.289062 21.132812 92.902344 21.523438 92.902344 22.003906 C 92.902344 22.484375 93.289062 22.871094 93.761719 22.871094 Z M 93.761719 22.871094 " fill-opacity="1" fill-rule="nonzero"/></g><g clip-path="url(#8a4abacca3)"><path stroke-linecap="butt" transform="matrix(0.118706, 0, 0, 0.120097, 3.691416, 6.298419)" fill="none" stroke-linejoin="miter" d="M 758.766393 137.993526 C 762.78103 137.993526 766.005903 134.773486 766.005903 130.772829 C 766.005903 126.772173 762.78103 123.519607 758.766393 123.519607 C 754.784662 123.519607 751.526882 126.772173 751.526882 130.772829 C 751.526882 134.773486 754.784662 137.993526 758.766393 137.993526 Z M 758.766393 137.993526 " stroke="#283149" stroke-width="0.5" stroke-opacity="1" stroke-miterlimit="10"/></g><path fill="#283149" d="M 91.347656 8.484375 L 91.121094 8.484375 L 91.140625 19.898438 L 91.367188 19.898438 Z M 91.347656 8.484375 " fill-opacity="1" fill-rule="nonzero"/><path stroke-linecap="butt" transform="matrix(0.118706, 0, 0, 0.120097, 3.691416, 6.298419)" fill-opacity="1" fill="#f0a500" fill-rule="nonzero" stroke-linejoin="miter" d="M 737.475651 27.536382 C 741.457382 27.536382 744.715162 24.283816 744.715162 20.28316 C 744.715162 16.315029 741.457382 13.062463 737.475651 13.062463 C 733.461014 13.062463 730.236141 16.315029 730.236141 20.28316 C 730.236141 24.283816 733.461014 27.536382 737.475651 27.536382 Z M 737.475651 27.536382 " stroke="#283149" stroke-width="0.5" stroke-opacity="1" stroke-miterlimit="10"/><path fill="#f0a500" d="M 91.820312 18.0625 C 93.335938 18.0625 94.5625 16.820312 94.5625 15.289062 C 94.5625 13.757812 93.335938 12.515625 91.820312 12.515625 C 90.308594 12.515625 89.082031 13.757812 89.082031 15.289062 C 89.082031 16.820312 90.308594 18.0625 91.820312 18.0625 Z M 91.820312 18.0625 " fill-opacity="1" fill-rule="nonzero"/></svg>