<svg xmlns="http://www.w3.org/2000/svg" xmlns:xlink="http://www.w3.org/1999/xlink" width="240" zoomAndPan="magnify" viewBox="0 0 180 30.000001" height="40" preserveAspectRatio="xMidYMid meet" version="1.0"><defs><g/><clipPath id="c002a2a5e8"><path d="M 7.695312 0.796875 L 35.273438 0.796875 L 35.273438 28.378906 L 7.695312 28.378906 Z M 7.695312 0.796875 " clip-rule="nonzero"/></clipPath></defs><g clip-path="url(#c002a2a5e8)"><path fill="#2165f2" d="M 21.484375 0.796875 C 20.578125 0.796875 19.679688 0.886719 18.792969 1.0625 C 17.90625 1.238281 17.042969 1.5 16.207031 1.847656 C 15.371094 2.195312 14.574219 2.621094 13.824219 3.121094 C 13.070312 3.625 12.371094 4.195312 11.734375 4.835938 C 11.09375 5.476562 10.519531 6.175781 10.019531 6.925781 C 9.515625 7.679688 9.089844 8.476562 8.742188 9.3125 C 8.398438 10.148438 8.136719 11.011719 7.957031 11.898438 C 7.78125 12.785156 7.695312 13.683594 7.695312 14.589844 C 7.695312 15.496094 7.78125 16.390625 7.957031 17.277344 C 8.136719 18.167969 8.398438 19.03125 8.742188 19.867188 C 9.089844 20.703125 9.515625 21.496094 10.019531 22.25 C 10.519531 23.003906 11.09375 23.699219 11.734375 24.339844 C 12.371094 24.980469 13.070312 25.550781 13.824219 26.054688 C 14.574219 26.558594 15.371094 26.984375 16.207031 27.328125 C 17.042969 27.675781 17.90625 27.9375 18.792969 28.113281 C 19.679688 28.289062 20.578125 28.378906 21.484375 28.378906 C 22.390625 28.378906 23.285156 28.289062 24.175781 28.113281 C 25.0625 27.9375 25.925781 27.675781 26.761719 27.328125 C 27.597656 26.984375 28.390625 26.558594 29.144531 26.054688 C 29.898438 25.550781 30.59375 24.980469 31.234375 24.339844 C 31.875 23.699219 32.445312 23.003906 32.949219 22.25 C 33.453125 21.496094 33.878906 20.703125 34.222656 19.867188 C 34.570312 19.03125 34.832031 18.167969 35.007812 17.277344 C 35.1875 16.390625 35.273438 15.496094 35.273438 14.589844 C 35.273438 13.683594 35.1875 12.785156 35.007812 11.898438 C 34.832031 11.011719 34.570312 10.148438 34.222656 9.3125 C 33.878906 8.476562 33.453125 7.679688 32.949219 6.925781 C 32.445312 6.175781 31.875 5.476562 31.234375 4.835938 C 30.59375 4.195312 29.898438 3.625 29.144531 3.121094 C 28.390625 2.621094 27.597656 2.195312 26.761719 1.847656 C 25.925781 1.5 25.0625 1.238281 24.175781 1.0625 C 23.285156 0.886719 22.390625 0.796875 21.484375 0.796875 Z M 23.453125 19.402344 C 23.332031 19.417969 23.210938 19.410156 23.089844 19.375 C 22.96875 19.339844 22.863281 19.28125 22.769531 19.199219 C 22.675781 19.121094 22.601562 19.023438 22.546875 18.910156 C 22.496094 18.796875 22.46875 18.679688 22.46875 18.554688 L 22.46875 16.289062 C 22.46875 16.089844 22.53125 15.914062 22.652344 15.757812 C 22.773438 15.605469 22.933594 15.503906 23.125 15.460938 C 23.488281 15.378906 23.824219 15.230469 24.132812 15.019531 C 24.441406 14.808594 24.703125 14.550781 24.914062 14.238281 C 25.121094 13.929688 25.269531 13.59375 25.351562 13.230469 C 25.433594 12.863281 25.445312 12.496094 25.390625 12.128906 C 25.332031 11.757812 25.207031 11.410156 25.019531 11.089844 C 24.832031 10.765625 24.589844 10.488281 24.296875 10.257812 C 24.003906 10.027344 23.675781 9.855469 23.320312 9.75 C 22.960938 9.640625 22.59375 9.601562 22.222656 9.632812 C 21.847656 9.664062 21.496094 9.765625 21.160156 9.929688 C 20.824219 10.09375 20.53125 10.316406 20.28125 10.59375 C 20.027344 10.871094 19.835938 11.183594 19.703125 11.53125 C 19.574219 11.882812 19.507812 12.246094 19.515625 12.617188 L 19.515625 21.976562 C 19.515625 22.171875 19.476562 22.359375 19.402344 22.542969 C 19.328125 22.722656 19.21875 22.882812 19.082031 23.019531 C 18.941406 23.160156 18.78125 23.265625 18.601562 23.339844 C 18.421875 23.417969 18.230469 23.453125 18.035156 23.453125 L 17.050781 23.453125 C 16.855469 23.453125 16.667969 23.417969 16.484375 23.339844 C 16.304688 23.265625 16.144531 23.160156 16.007812 23.019531 C 15.867188 22.882812 15.761719 22.722656 15.6875 22.542969 C 15.609375 22.359375 15.574219 22.171875 15.574219 21.976562 L 15.574219 12.796875 C 15.570312 12.351562 15.605469 11.910156 15.683594 11.472656 C 15.761719 11.035156 15.882812 10.609375 16.042969 10.195312 C 16.203125 9.78125 16.398438 9.386719 16.632812 9.007812 C 16.871094 8.632812 17.136719 8.28125 17.441406 7.953125 C 17.742188 7.628906 18.070312 7.335938 18.429688 7.070312 C 18.789062 6.808594 19.167969 6.582031 19.566406 6.390625 C 19.96875 6.199219 20.382812 6.046875 20.8125 5.933594 C 21.246094 5.824219 21.679688 5.753906 22.125 5.722656 C 22.550781 5.71875 22.976562 5.753906 23.398438 5.824219 C 23.820312 5.898438 24.234375 6.011719 24.632812 6.164062 C 25.035156 6.3125 25.417969 6.5 25.785156 6.722656 C 26.152344 6.941406 26.496094 7.195312 26.8125 7.484375 C 27.132812 7.769531 27.421875 8.082031 27.683594 8.421875 C 27.945312 8.761719 28.171875 9.121094 28.363281 9.503906 C 28.558594 9.886719 28.714844 10.28125 28.832031 10.695312 C 28.953125 11.105469 29.035156 11.523438 29.074219 11.949219 C 29.117188 12.378906 29.117188 12.804688 29.082031 13.230469 C 29.042969 13.65625 28.964844 14.078125 28.847656 14.488281 C 28.734375 14.902344 28.578125 15.300781 28.390625 15.683594 C 28.199219 16.066406 27.972656 16.429688 27.714844 16.769531 C 27.457031 17.113281 27.171875 17.429688 26.855469 17.714844 C 26.539062 18.003906 26.195312 18.261719 25.832031 18.488281 C 25.46875 18.710938 25.085938 18.902344 24.6875 19.054688 C 24.285156 19.207031 23.875 19.324219 23.453125 19.402344 Z M 23.453125 19.402344 " fill-opacity="1" fill-rule="nonzero"/></g><g fill="#2165f2" fill-opacity="1"><g transform="translate(38.448038, 19.312082)"><g><path d="M 6.476562 -9.59375 C 4.960938 -9.59375 3.671875 -8.984375 2.804688 -7.957031 L 2.507812 -9.402344 L 1.480469 -9.402344 L 1.480469 3.359375 L 2.960938 3.359375 L 2.960938 -1.253906 C 3.828125 -0.332031 5.066406 0.207031 6.476562 0.207031 C 9.277344 0.207031 11.296875 -1.898438 11.296875 -4.699219 C 11.296875 -7.503906 9.277344 -9.59375 6.476562 -9.59375 Z M 6.371094 -1.21875 C 4.371094 -1.21875 2.90625 -2.714844 2.90625 -4.699219 C 2.90625 -6.667969 4.371094 -8.164062 6.371094 -8.164062 C 8.355469 -8.164062 9.820312 -6.683594 9.820312 -4.699219 C 9.820312 -2.699219 8.355469 -1.21875 6.371094 -1.21875 Z M 6.371094 -1.21875 "/></g></g></g><g fill="#2165f2" fill-opacity="1"><g transform="translate(50.512684, 19.312082)"><g><path d="M 5.726562 0.207031 C 8.566406 0.207031 10.707031 -1.878906 10.707031 -4.699219 C 10.707031 -7.503906 8.566406 -9.59375 5.726562 -9.59375 C 2.871094 -9.59375 0.730469 -7.519531 0.730469 -4.699219 C 0.730469 -1.878906 2.871094 0.207031 5.726562 0.207031 Z M 5.726562 -1.21875 C 3.707031 -1.21875 2.246094 -2.679688 2.246094 -4.699219 C 2.246094 -6.703125 3.707031 -8.164062 5.726562 -8.164062 C 7.730469 -8.164062 9.191406 -6.703125 9.191406 -4.683594 C 9.191406 -2.679688 7.730469 -1.21875 5.726562 -1.21875 Z M 5.726562 -1.21875 "/></g></g></g><g fill="#2165f2" fill-opacity="1"><g transform="translate(61.985415, 19.312082)"><g><path d="M 4.457031 0.207031 C 6.683594 0.207031 8.183594 -0.921875 8.183594 -2.679688 C 8.183594 -4.980469 6.265625 -5.292969 4.648438 -5.554688 C 3.394531 -5.746094 2.316406 -5.9375 2.316406 -6.929688 C 2.316406 -7.746094 3.117188 -8.269531 4.386719 -8.269531 C 5.710938 -8.269531 6.511719 -7.710938 6.5625 -6.683594 L 7.957031 -6.683594 C 7.902344 -8.460938 6.546875 -9.59375 4.421875 -9.59375 C 2.296875 -9.59375 0.871094 -8.496094 0.871094 -6.875 C 0.871094 -4.753906 2.679688 -4.421875 4.28125 -4.144531 C 5.554688 -3.933594 6.71875 -3.726562 6.71875 -2.613281 C 6.71875 -1.707031 5.796875 -1.148438 4.507812 -1.148438 C 3.1875 -1.148438 2.226562 -1.757812 2.160156 -2.871094 L 0.695312 -2.871094 C 0.785156 -0.976562 2.226562 0.207031 4.457031 0.207031 Z M 4.457031 0.207031 "/></g></g></g><g fill="#2165f2" fill-opacity="1"><g transform="translate(70.916389, 19.312082)"><g/></g></g><g fill="#2165f2" fill-opacity="1"><g transform="translate(75.477626, 19.312082)"><g><path d="M 10.273438 -4.648438 C 10.273438 -7.398438 8.390625 -9.59375 5.535156 -9.59375 C 2.804688 -9.59375 0.75 -7.484375 0.75 -4.699219 C 0.75 -1.898438 2.804688 0.207031 5.535156 0.207031 C 7.574219 0.207031 9.226562 -0.921875 10.027344 -2.855469 L 8.460938 -2.855469 C 7.886719 -1.84375 6.84375 -1.234375 5.535156 -1.234375 C 3.761719 -1.234375 2.453125 -2.386719 2.226562 -4.125 L 10.238281 -4.125 C 10.253906 -4.300781 10.273438 -4.472656 10.273438 -4.648438 Z M 5.535156 -8.199219 C 7.207031 -8.199219 8.476562 -7.15625 8.792969 -5.484375 L 2.261719 -5.484375 C 2.558594 -7.121094 3.828125 -8.199219 5.535156 -8.199219 Z M 5.535156 -8.199219 "/></g></g></g><g fill="#2165f2" fill-opacity="1"><g transform="translate(86.480306, 19.312082)"><g><path d="M 6.179688 -9.59375 C 4.734375 -9.59375 3.535156 -8.964844 2.820312 -7.921875 L 2.542969 -9.402344 L 1.480469 -9.402344 L 1.480469 0 L 2.960938 0 L 2.960938 -5.117188 C 2.960938 -6.875 4.195312 -8.253906 5.816406 -8.253906 C 7.433594 -8.253906 8.339844 -7.171875 8.339844 -5.273438 L 8.339844 0 L 9.820312 0 L 9.820312 -5.625 C 9.820312 -7.921875 8.425781 -9.59375 6.179688 -9.59375 Z M 6.179688 -9.59375 "/></g></g></g><g fill="#2165f2" fill-opacity="1"><g transform="translate(97.657079, 19.312082)"><g><path d="M 5.378906 -1.359375 C 4.089844 -1.359375 3.394531 -2.054688 3.394531 -3.324219 L 3.394531 -8.058594 L 6.355469 -8.058594 L 6.355469 -9.402344 L 3.394531 -9.402344 L 3.394531 -11.386719 L 3.167969 -11.386719 L 0.261719 -8.320312 L 0.261719 -8.058594 L 1.914062 -8.058594 L 1.914062 -3.273438 C 1.914062 -1.234375 3.167969 0 5.1875 0 L 6.40625 0 L 6.40625 -1.359375 Z M 5.378906 -1.359375 "/></g></g></g><g fill="#2165f2" fill-opacity="1"><g transform="translate(104.551161, 19.312082)"><g><path d="M 10.273438 -4.648438 C 10.273438 -7.398438 8.390625 -9.59375 5.535156 -9.59375 C 2.804688 -9.59375 0.75 -7.484375 0.75 -4.699219 C 0.75 -1.898438 2.804688 0.207031 5.535156 0.207031 C 7.574219 0.207031 9.226562 -0.921875 10.027344 -2.855469 L 8.460938 -2.855469 C 7.886719 -1.84375 6.84375 -1.234375 5.535156 -1.234375 C 3.761719 -1.234375 2.453125 -2.386719 2.226562 -4.125 L 10.238281 -4.125 C 10.253906 -4.300781 10.273438 -4.472656 10.273438 -4.648438 Z M 5.535156 -8.199219 C 7.207031 -8.199219 8.476562 -7.15625 8.792969 -5.484375 L 2.261719 -5.484375 C 2.558594 -7.121094 3.828125 -8.199219 5.535156 -8.199219 Z M 5.535156 -8.199219 "/></g></g></g><g fill="#2165f2" fill-opacity="1"><g transform="translate(115.553838, 19.312082)"><g><path d="M 9.246094 -9.402344 L 9.019531 -7.9375 C 8.164062 -8.964844 6.875 -9.59375 5.363281 -9.59375 C 2.75 -9.59375 0.75 -7.554688 0.75 -4.945312 C 0.75 -2.316406 2.75 -0.296875 5.363281 -0.296875 C 6.753906 -0.296875 7.957031 -0.816406 8.792969 -1.6875 L 8.792969 -1.113281 C 8.792969 0.976562 7.503906 2.210938 5.625 2.210938 C 4.265625 2.210938 3.082031 1.550781 2.664062 0.382812 L 1.183594 0.382812 C 1.6875 2.367188 3.324219 3.570312 5.625 3.570312 C 8.496094 3.570312 10.238281 1.722656 10.238281 -1.304688 L 10.238281 -9.382812 Z M 5.519531 -1.707031 C 3.636719 -1.707031 2.246094 -3.097656 2.246094 -4.945312 C 2.246094 -6.789062 3.636719 -8.183594 5.519531 -8.183594 C 7.398438 -8.183594 8.773438 -6.808594 8.773438 -4.945312 C 8.773438 -3.082031 7.417969 -1.707031 5.519531 -1.707031 Z M 5.519531 -1.707031 "/></g></g></g><g fill="#2165f2" fill-opacity="1"><g transform="translate(127.28771, 19.312082)"><g><path d="M 5.78125 -9.4375 C 4.421875 -9.4375 3.445312 -8.929688 2.769531 -7.957031 L 2.542969 -9.402344 L 1.480469 -9.402344 L 1.480469 0 L 2.960938 0 L 2.960938 -5.101562 C 2.960938 -6.929688 3.933594 -8.042969 5.65625 -8.042969 L 6.617188 -8.042969 L 6.617188 -9.4375 Z M 5.78125 -9.4375 "/></g></g></g><g fill="#2165f2" fill-opacity="1"><g transform="translate(134.007705, 19.312082)"><g><path d="M 9.503906 -9.402344 L 9.3125 -7.957031 C 8.445312 -8.984375 7.136719 -9.59375 5.605469 -9.59375 C 2.820312 -9.59375 0.730469 -7.503906 0.730469 -4.683594 C 0.730469 -1.898438 2.820312 0.207031 5.605469 0.207031 C 7.136719 0.207031 8.425781 -0.402344 9.296875 -1.410156 L 9.453125 0 L 10.671875 0 L 10.671875 -9.402344 Z M 5.710938 -1.21875 C 3.726562 -1.21875 2.246094 -2.714844 2.246094 -4.699219 C 2.246094 -6.667969 3.726562 -8.164062 5.710938 -8.164062 C 7.710938 -8.164062 9.15625 -6.683594 9.15625 -4.699219 C 9.15625 -2.699219 7.710938 -1.21875 5.710938 -1.21875 Z M 5.710938 -1.21875 "/></g></g></g><g fill="#2165f2" fill-opacity="1"><g transform="translate(146.176813, 19.312082)"><g><path d="M 5.378906 -1.359375 C 4.089844 -1.359375 3.394531 -2.054688 3.394531 -3.324219 L 3.394531 -8.058594 L 6.355469 -8.058594 L 6.355469 -9.402344 L 3.394531 -9.402344 L 3.394531 -11.386719 L 3.167969 -11.386719 L 0.261719 -8.320312 L 0.261719 -8.058594 L 1.914062 -8.058594 L 1.914062 -3.273438 C 1.914062 -1.234375 3.167969 0 5.1875 0 L 6.40625 0 L 6.40625 -1.359375 Z M 5.378906 -1.359375 "/></g></g></g><g fill="#2165f2" fill-opacity="1"><g transform="translate(153.070901, 19.312082)"><g><path d="M 3.152344 -11.019531 L 4.855469 -11.019531 L 4.855469 -12.707031 L 3.152344 -12.707031 Z M 6.582031 -11.019531 L 8.285156 -11.019531 L 8.285156 -12.707031 L 6.582031 -12.707031 Z M 5.726562 0.207031 C 8.566406 0.207031 10.707031 -1.878906 10.707031 -4.699219 C 10.707031 -7.503906 8.566406 -9.59375 5.726562 -9.59375 C 2.871094 -9.59375 0.730469 -7.519531 0.730469 -4.699219 C 0.730469 -1.878906 2.871094 0.207031 5.726562 0.207031 Z M 5.726562 -1.21875 C 3.707031 -1.21875 2.246094 -2.679688 2.246094 -4.699219 C 2.246094 -6.703125 3.707031 -8.164062 5.726562 -8.164062 C 7.730469 -8.164062 9.191406 -6.703125 9.191406 -4.683594 C 9.191406 -2.679688 7.730469 -1.21875 5.726562 -1.21875 Z M 5.726562 -1.21875 "/></g></g></g><g fill="#2165f2" fill-opacity="1"><g transform="translate(164.543636, 19.312082)"><g><path d="M 5.78125 -9.4375 C 4.421875 -9.4375 3.445312 -8.929688 2.769531 -7.957031 L 2.542969 -9.402344 L 1.480469 -9.402344 L 1.480469 0 L 2.960938 0 L 2.960938 -5.101562 C 2.960938 -6.929688 3.933594 -8.042969 5.65625 -8.042969 L 6.617188 -8.042969 L 6.617188 -9.4375 Z M 5.78125 -9.4375 "/></g></g></g></svg>