<svg xmlns="http://www.w3.org/2000/svg" xmlns:xlink="http://www.w3.org/1999/xlink" width="200" zoomAndPan="magnify" viewBox="0 0 150 30.000001" height="40" preserveAspectRatio="xMidYMid meet" version="1.0"><defs><g/><clipPath id="9296f9b9f4"><path d="M 9.855469 0.730469 L 38.164062 0.730469 L 38.164062 28.3125 L 9.855469 28.3125 Z M 9.855469 0.730469 " clip-rule="nonzero"/></clipPath></defs><g clip-path="url(#9296f9b9f4)"><path fill="#2165f2" d="M 29.085938 13.433594 C 30.1875 12.632812 30.921875 11.644531 31.292969 10.460938 L 31.316406 10.382812 C 31.746094 9.015625 31.632812 7.980469 30.972656 7.269531 C 30.308594 6.558594 29.210938 6.207031 27.675781 6.207031 L 16.839844 6.207031 C 23.011719 4.984375 18.167969 0.734375 22.847656 0.734375 L 29.921875 0.734375 C 31.585938 0.734375 33.003906 0.964844 34.171875 1.421875 C 35.335938 1.882812 36.242188 2.53125 36.894531 3.371094 C 37.542969 4.210938 37.925781 5.214844 38.042969 6.382812 C 38.164062 7.554688 38 8.847656 37.554688 10.265625 L 37.53125 10.34375 C 37.027344 11.945312 35.949219 14.308594 34.992188 15.519531 C 26.566406 26.074219 16.292969 14.574219 9.855469 28.308594 C 14.496094 8.628906 21.417969 19.023438 29.085938 13.433594 Z M 29.085938 13.433594 " fill-opacity="1" fill-rule="nonzero"/></g><g fill="#2165f2" fill-opacity="1"><g transform="translate(36.469015, 22.00223)"><g><path d="M 4.917969 0.179688 C 7.355469 0.179688 9.191406 -1.613281 9.191406 -4.035156 C 9.191406 -6.441406 7.355469 -8.234375 4.917969 -8.234375 C 2.464844 -8.234375 0.628906 -6.457031 0.628906 -4.035156 C 0.628906 -1.613281 2.464844 0.179688 4.917969 0.179688 Z M 4.917969 -1.046875 C 3.183594 -1.046875 1.929688 -2.300781 1.929688 -4.035156 C 1.929688 -5.753906 3.183594 -7.011719 4.917969 -7.011719 C 6.636719 -7.011719 7.890625 -5.753906 7.890625 -4.019531 C 7.890625 -2.300781 6.636719 -1.046875 4.917969 -1.046875 Z M 4.917969 -1.046875 "/></g></g></g><g fill="#2165f2" fill-opacity="1"><g transform="translate(46.319, 22.00223)"><g><path d="M 3.828125 0.179688 C 5.738281 0.179688 7.023438 -0.792969 7.023438 -2.300781 C 7.023438 -4.273438 5.382812 -4.542969 3.992188 -4.769531 C 2.914062 -4.933594 1.988281 -5.097656 1.988281 -5.949219 C 1.988281 -6.652344 2.675781 -7.101562 3.765625 -7.101562 C 4.902344 -7.101562 5.589844 -6.621094 5.636719 -5.738281 L 6.832031 -5.738281 C 6.785156 -7.265625 5.621094 -8.234375 3.796875 -8.234375 C 1.972656 -8.234375 0.746094 -7.292969 0.746094 -5.902344 C 0.746094 -4.082031 2.300781 -3.796875 3.675781 -3.558594 C 4.769531 -3.378906 5.769531 -3.199219 5.769531 -2.242188 C 5.769531 -1.464844 4.976562 -0.988281 3.871094 -0.988281 C 2.734375 -0.988281 1.914062 -1.507812 1.851562 -2.464844 L 0.597656 -2.464844 C 0.671875 -0.835938 1.914062 0.179688 3.828125 0.179688 Z M 3.828125 0.179688 "/></g></g></g><g fill="#2165f2" fill-opacity="1"><g transform="translate(53.986743, 22.00223)"><g/></g></g><g fill="#2165f2" fill-opacity="1"><g transform="translate(57.902822, 22.00223)"><g><path d="M 8.820312 -3.992188 C 8.820312 -6.351562 7.203125 -8.234375 4.753906 -8.234375 C 2.40625 -8.234375 0.644531 -6.425781 0.644531 -4.035156 C 0.644531 -1.628906 2.40625 0.179688 4.753906 0.179688 C 6.503906 0.179688 7.921875 -0.792969 8.609375 -2.453125 L 7.265625 -2.453125 C 6.769531 -1.585938 5.875 -1.0625 4.753906 -1.0625 C 3.230469 -1.0625 2.109375 -2.046875 1.914062 -3.542969 L 8.789062 -3.542969 C 8.804688 -3.691406 8.820312 -3.839844 8.820312 -3.992188 Z M 4.753906 -7.039062 C 6.1875 -7.039062 7.28125 -6.144531 7.546875 -4.707031 L 1.941406 -4.707031 C 2.199219 -6.113281 3.289062 -7.039062 4.753906 -7.039062 Z M 4.753906 -7.039062 "/></g></g></g><g fill="#2165f2" fill-opacity="1"><g transform="translate(67.349242, 22.00223)"><g><path d="M 5.304688 -8.234375 C 4.066406 -8.234375 3.035156 -7.699219 2.421875 -6.800781 L 2.183594 -8.070312 L 1.269531 -8.070312 L 1.269531 0 L 2.542969 0 L 2.542969 -4.394531 C 2.542969 -5.902344 3.601562 -7.085938 4.992188 -7.085938 C 6.382812 -7.085938 7.160156 -6.160156 7.160156 -4.527344 L 7.160156 0 L 8.429688 0 L 8.429688 -4.828125 C 8.429688 -6.800781 7.234375 -8.234375 5.304688 -8.234375 Z M 5.304688 -8.234375 "/></g></g></g><g fill="#2165f2" fill-opacity="1"><g transform="translate(76.94513, 22.00223)"><g><path d="M 4.617188 -1.164062 C 3.511719 -1.164062 2.914062 -1.765625 2.914062 -2.855469 L 2.914062 -6.921875 L 5.457031 -6.921875 L 5.457031 -8.070312 L 2.914062 -8.070312 L 2.914062 -9.777344 L 2.71875 -9.777344 L 0.222656 -7.144531 L 0.222656 -6.921875 L 1.644531 -6.921875 L 1.644531 -2.808594 C 1.644531 -1.0625 2.71875 0 4.453125 0 L 5.5 0 L 5.5 -1.164062 Z M 4.617188 -1.164062 "/></g></g></g><g fill="#2165f2" fill-opacity="1"><g transform="translate(82.864089, 22.00223)"><g><path d="M 8.820312 -3.992188 C 8.820312 -6.351562 7.203125 -8.234375 4.753906 -8.234375 C 2.40625 -8.234375 0.644531 -6.425781 0.644531 -4.035156 C 0.644531 -1.628906 2.40625 0.179688 4.753906 0.179688 C 6.503906 0.179688 7.921875 -0.792969 8.609375 -2.453125 L 7.265625 -2.453125 C 6.769531 -1.585938 5.875 -1.0625 4.753906 -1.0625 C 3.230469 -1.0625 2.109375 -2.046875 1.914062 -3.542969 L 8.789062 -3.542969 C 8.804688 -3.691406 8.820312 -3.839844 8.820312 -3.992188 Z M 4.753906 -7.039062 C 6.1875 -7.039062 7.28125 -6.144531 7.546875 -4.707031 L 1.941406 -4.707031 C 2.199219 -6.113281 3.289062 -7.039062 4.753906 -7.039062 Z M 4.753906 -7.039062 "/></g></g></g><g fill="#2165f2" fill-opacity="1"><g transform="translate(92.31051, 22.00223)"><g><path d="M 7.9375 -8.070312 L 7.742188 -6.816406 C 7.011719 -7.699219 5.902344 -8.234375 4.605469 -8.234375 C 2.363281 -8.234375 0.644531 -6.488281 0.644531 -4.246094 C 0.644531 -1.988281 2.363281 -0.253906 4.605469 -0.253906 C 5.800781 -0.253906 6.832031 -0.703125 7.546875 -1.449219 L 7.546875 -0.957031 C 7.546875 0.835938 6.441406 1.898438 4.828125 1.898438 C 3.664062 1.898438 2.644531 1.332031 2.285156 0.328125 L 1.015625 0.328125 C 1.449219 2.03125 2.855469 3.0625 4.828125 3.0625 C 7.292969 3.0625 8.789062 1.480469 8.789062 -1.121094 L 8.789062 -8.058594 Z M 4.738281 -1.464844 C 3.125 -1.464844 1.929688 -2.660156 1.929688 -4.246094 C 1.929688 -5.828125 3.125 -7.023438 4.738281 -7.023438 C 6.351562 -7.023438 7.535156 -5.84375 7.535156 -4.246094 C 7.535156 -2.644531 6.367188 -1.464844 4.738281 -1.464844 Z M 4.738281 -1.464844 "/></g></g></g><g fill="#2165f2" fill-opacity="1"><g transform="translate(102.384698, 22.00223)"><g><path d="M 4.960938 -8.101562 C 3.796875 -8.101562 2.960938 -7.667969 2.375 -6.832031 L 2.183594 -8.070312 L 1.269531 -8.070312 L 1.269531 0 L 2.542969 0 L 2.542969 -4.378906 C 2.542969 -5.949219 3.378906 -6.90625 4.859375 -6.90625 L 5.679688 -6.90625 L 5.679688 -8.101562 Z M 4.960938 -8.101562 "/></g></g></g><g fill="#2165f2" fill-opacity="1"><g transform="translate(108.154187, 22.00223)"><g><path d="M 8.160156 -8.070312 L 7.996094 -6.832031 C 7.25 -7.714844 6.128906 -8.234375 4.8125 -8.234375 C 2.421875 -8.234375 0.628906 -6.441406 0.628906 -4.019531 C 0.628906 -1.628906 2.421875 0.179688 4.8125 0.179688 C 6.128906 0.179688 7.234375 -0.34375 7.980469 -1.210938 L 8.117188 0 L 9.164062 0 L 9.164062 -8.070312 Z M 4.902344 -1.046875 C 3.199219 -1.046875 1.929688 -2.332031 1.929688 -4.035156 C 1.929688 -5.726562 3.199219 -7.011719 4.902344 -7.011719 C 6.621094 -7.011719 7.863281 -5.738281 7.863281 -4.035156 C 7.863281 -2.316406 6.621094 -1.046875 4.902344 -1.046875 Z M 4.902344 -1.046875 "/></g></g></g><g fill="#2165f2" fill-opacity="1"><g transform="translate(118.602046, 22.00223)"><g><path d="M 4.617188 -1.164062 C 3.511719 -1.164062 2.914062 -1.765625 2.914062 -2.855469 L 2.914062 -6.921875 L 5.457031 -6.921875 L 5.457031 -8.070312 L 2.914062 -8.070312 L 2.914062 -9.777344 L 2.71875 -9.777344 L 0.222656 -7.144531 L 0.222656 -6.921875 L 1.644531 -6.921875 L 1.644531 -2.808594 C 1.644531 -1.0625 2.71875 0 4.453125 0 L 5.5 0 L 5.5 -1.164062 Z M 4.617188 -1.164062 "/></g></g></g><g fill="#2165f2" fill-opacity="1"><g transform="translate(124.521002, 22.00223)"><g><path d="M 2.707031 -9.460938 L 4.171875 -9.460938 L 4.171875 -10.910156 L 2.707031 -10.910156 Z M 5.648438 -9.460938 L 7.113281 -9.460938 L 7.113281 -10.910156 L 5.648438 -10.910156 Z M 4.917969 0.179688 C 7.355469 0.179688 9.191406 -1.613281 9.191406 -4.035156 C 9.191406 -6.441406 7.355469 -8.234375 4.917969 -8.234375 C 2.464844 -8.234375 0.628906 -6.457031 0.628906 -4.035156 C 0.628906 -1.613281 2.464844 0.179688 4.917969 0.179688 Z M 4.917969 -1.046875 C 3.183594 -1.046875 1.929688 -2.300781 1.929688 -4.035156 C 1.929688 -5.753906 3.183594 -7.011719 4.917969 -7.011719 C 6.636719 -7.011719 7.890625 -5.753906 7.890625 -4.019531 C 7.890625 -2.300781 6.636719 -1.046875 4.917969 -1.046875 Z M 4.917969 -1.046875 "/></g></g></g><g fill="#2165f2" fill-opacity="1"><g transform="translate(134.370986, 22.00223)"><g><path d="M 4.960938 -8.101562 C 3.796875 -8.101562 2.960938 -7.667969 2.375 -6.832031 L 2.183594 -8.070312 L 1.269531 -8.070312 L 1.269531 0 L 2.542969 0 L 2.542969 -4.378906 C 2.542969 -5.949219 3.378906 -6.90625 4.859375 -6.90625 L 5.679688 -6.90625 L 5.679688 -8.101562 Z M 4.960938 -8.101562 "/></g></g></g></svg>