<svg xmlns="http://www.w3.org/2000/svg" xmlns:xlink="http://www.w3.org/1999/xlink" width="240" zoomAndPan="magnify" viewBox="0 0 180 30.000001" height="40" preserveAspectRatio="xMidYMid meet" version="1.0"><defs><g/><clipPath id="08edc905f9"><path d="M 6.53125 0.730469 L 34.839844 0.730469 L 34.839844 28.3125 L 6.53125 28.3125 Z M 6.53125 0.730469 " clip-rule="nonzero"/></clipPath></defs><g clip-path="url(#08edc905f9)"><path fill="#2165f2" d="M 25.761719 13.433594 C 26.863281 12.632812 27.59375 11.644531 27.96875 10.460938 L 27.992188 10.382812 C 28.417969 9.015625 28.308594 7.980469 27.644531 7.269531 C 26.984375 6.558594 25.886719 6.207031 24.347656 6.207031 L 13.515625 6.207031 C 19.6875 4.984375 14.84375 0.734375 19.523438 0.734375 L 26.597656 0.734375 C 28.261719 0.734375 29.679688 0.964844 30.847656 1.421875 C 32.011719 1.882812 32.917969 2.53125 33.570312 3.371094 C 34.21875 4.210938 34.601562 5.214844 34.71875 6.382812 C 34.839844 7.554688 34.675781 8.847656 34.230469 10.265625 L 34.207031 10.34375 C 33.703125 11.945312 32.625 14.308594 31.664062 15.519531 C 23.242188 26.074219 12.96875 14.574219 6.53125 28.308594 C 11.171875 8.628906 18.09375 19.023438 25.761719 13.433594 Z M 25.761719 13.433594 " fill-opacity="1" fill-rule="nonzero"/></g><g fill="#2165f2" fill-opacity="1"><g transform="translate(38.64553, 18.762403)"><g><path d="M 6.5625 -9.71875 C 5.027344 -9.71875 3.722656 -9.101562 2.839844 -8.058594 L 2.539062 -9.523438 L 1.5 -9.523438 L 1.5 3.402344 L 3 3.402344 L 3 -1.269531 C 3.878906 -0.335938 5.132812 0.210938 6.5625 0.210938 C 9.402344 0.210938 11.445312 -1.921875 11.445312 -4.761719 C 11.445312 -7.601562 9.402344 -9.71875 6.5625 -9.71875 Z M 6.457031 -1.234375 C 4.425781 -1.234375 2.945312 -2.75 2.945312 -4.761719 C 2.945312 -6.753906 4.425781 -8.273438 6.457031 -8.273438 C 8.464844 -8.273438 9.949219 -6.773438 9.949219 -4.761719 C 9.949219 -2.734375 8.464844 -1.234375 6.457031 -1.234375 Z M 6.457031 -1.234375 "/></g></g></g><g fill="#2165f2" fill-opacity="1"><g transform="translate(50.868029, 18.762403)"><g><path d="M 5.804688 0.210938 C 8.679688 0.210938 10.847656 -1.90625 10.847656 -4.761719 C 10.847656 -7.601562 8.679688 -9.71875 5.804688 -9.71875 C 2.910156 -9.71875 0.742188 -7.621094 0.742188 -4.761719 C 0.742188 -1.90625 2.910156 0.210938 5.804688 0.210938 Z M 5.804688 -1.234375 C 3.757812 -1.234375 2.273438 -2.714844 2.273438 -4.761719 C 2.273438 -6.789062 3.757812 -8.273438 5.804688 -8.273438 C 7.832031 -8.273438 9.3125 -6.789062 9.3125 -4.746094 C 9.3125 -2.714844 7.832031 -1.234375 5.804688 -1.234375 Z M 5.804688 -1.234375 "/></g></g></g><g fill="#2165f2" fill-opacity="1"><g transform="translate(62.490867, 18.762403)"><g><path d="M 4.515625 0.210938 C 6.773438 0.210938 8.289062 -0.933594 8.289062 -2.714844 C 8.289062 -5.042969 6.351562 -5.363281 4.710938 -5.625 C 3.4375 -5.820312 2.347656 -6.015625 2.347656 -7.019531 C 2.347656 -7.847656 3.15625 -8.378906 4.445312 -8.378906 C 5.785156 -8.378906 6.597656 -7.8125 6.648438 -6.773438 L 8.058594 -6.773438 C 8.007812 -8.570312 6.632812 -9.71875 4.480469 -9.71875 C 2.328125 -9.71875 0.882812 -8.605469 0.882812 -6.96875 C 0.882812 -4.816406 2.714844 -4.480469 4.339844 -4.199219 C 5.625 -3.984375 6.808594 -3.773438 6.808594 -2.644531 C 6.808594 -1.726562 5.875 -1.164062 4.566406 -1.164062 C 3.226562 -1.164062 2.257812 -1.78125 2.1875 -2.910156 L 0.707031 -2.910156 C 0.792969 -0.988281 2.257812 0.210938 4.515625 0.210938 Z M 4.515625 0.210938 "/></g></g></g><g fill="#2165f2" fill-opacity="1"><g transform="translate(71.53869, 18.762403)"><g/></g></g><g fill="#2165f2" fill-opacity="1"><g transform="translate(76.159606, 18.762403)"><g><path d="M 10.40625 -4.710938 C 10.40625 -7.496094 8.5 -9.71875 5.609375 -9.71875 C 2.839844 -9.71875 0.757812 -7.585938 0.757812 -4.761719 C 0.757812 -1.921875 2.839844 0.210938 5.609375 0.210938 C 7.671875 0.210938 9.347656 -0.933594 10.160156 -2.894531 L 8.570312 -2.894531 C 7.988281 -1.871094 6.933594 -1.253906 5.609375 -1.253906 C 3.808594 -1.253906 2.488281 -2.417969 2.257812 -4.179688 L 10.371094 -4.179688 C 10.390625 -4.355469 10.40625 -4.53125 10.40625 -4.710938 Z M 5.609375 -8.308594 C 7.300781 -8.308594 8.589844 -7.25 8.90625 -5.554688 L 2.292969 -5.554688 C 2.59375 -7.214844 3.878906 -8.308594 5.609375 -8.308594 Z M 5.609375 -8.308594 "/></g></g></g><g fill="#2165f2" fill-opacity="1"><g transform="translate(87.306241, 18.762403)"><g><path d="M 6.261719 -9.71875 C 4.796875 -9.71875 3.582031 -9.082031 2.855469 -8.023438 L 2.574219 -9.523438 L 1.5 -9.523438 L 1.5 0 L 3 0 L 3 -5.183594 C 3 -6.96875 4.25 -8.359375 5.890625 -8.359375 C 7.53125 -8.359375 8.449219 -7.265625 8.449219 -5.34375 L 8.449219 0 L 9.949219 0 L 9.949219 -5.695312 C 9.949219 -8.023438 8.535156 -9.71875 6.261719 -9.71875 Z M 6.261719 -9.71875 "/></g></g></g><g fill="#2165f2" fill-opacity="1"><g transform="translate(98.629247, 18.762403)"><g><path d="M 5.449219 -1.375 C 4.144531 -1.375 3.4375 -2.082031 3.4375 -3.367188 L 3.4375 -8.167969 L 6.4375 -8.167969 L 6.4375 -9.523438 L 3.4375 -9.523438 L 3.4375 -11.535156 L 3.210938 -11.535156 L 0.265625 -8.429688 L 0.265625 -8.167969 L 1.941406 -8.167969 L 1.941406 -3.316406 C 1.941406 -1.253906 3.210938 0 5.257812 0 L 6.492188 0 L 6.492188 -1.375 Z M 5.449219 -1.375 "/></g></g></g><g fill="#2165f2" fill-opacity="1"><g transform="translate(105.613532, 18.762403)"><g><path d="M 10.40625 -4.710938 C 10.40625 -7.496094 8.5 -9.71875 5.609375 -9.71875 C 2.839844 -9.71875 0.757812 -7.585938 0.757812 -4.761719 C 0.757812 -1.921875 2.839844 0.210938 5.609375 0.210938 C 7.671875 0.210938 9.347656 -0.933594 10.160156 -2.894531 L 8.570312 -2.894531 C 7.988281 -1.871094 6.933594 -1.253906 5.609375 -1.253906 C 3.808594 -1.253906 2.488281 -2.417969 2.257812 -4.179688 L 10.371094 -4.179688 C 10.390625 -4.355469 10.40625 -4.53125 10.40625 -4.710938 Z M 5.609375 -8.308594 C 7.300781 -8.308594 8.589844 -7.25 8.90625 -5.554688 L 2.292969 -5.554688 C 2.59375 -7.214844 3.878906 -8.308594 5.609375 -8.308594 Z M 5.609375 -8.308594 "/></g></g></g><g fill="#2165f2" fill-opacity="1"><g transform="translate(116.760174, 18.762403)"><g><path d="M 9.367188 -9.523438 L 9.136719 -8.042969 C 8.273438 -9.082031 6.96875 -9.71875 5.433594 -9.71875 C 2.785156 -9.71875 0.757812 -7.65625 0.757812 -5.007812 C 0.757812 -2.347656 2.785156 -0.300781 5.433594 -0.300781 C 6.84375 -0.300781 8.058594 -0.828125 8.90625 -1.710938 L 8.90625 -1.128906 C 8.90625 0.988281 7.601562 2.238281 5.695312 2.238281 C 4.320312 2.238281 3.121094 1.570312 2.699219 0.386719 L 1.199219 0.386719 C 1.710938 2.398438 3.367188 3.617188 5.695312 3.617188 C 8.605469 3.617188 10.371094 1.746094 10.371094 -1.324219 L 10.371094 -9.507812 Z M 5.589844 -1.726562 C 3.6875 -1.726562 2.273438 -3.140625 2.273438 -5.007812 C 2.273438 -6.878906 3.6875 -8.289062 5.589844 -8.289062 C 7.496094 -8.289062 8.890625 -6.894531 8.890625 -5.007812 C 8.890625 -3.121094 7.515625 -1.726562 5.589844 -1.726562 Z M 5.589844 -1.726562 "/></g></g></g><g fill="#2165f2" fill-opacity="1"><g transform="translate(128.647572, 18.762403)"><g><path d="M 5.855469 -9.558594 C 4.480469 -9.558594 3.492188 -9.046875 2.804688 -8.058594 L 2.574219 -9.523438 L 1.5 -9.523438 L 1.5 0 L 3 0 L 3 -5.167969 C 3 -7.019531 3.984375 -8.148438 5.730469 -8.148438 L 6.703125 -8.148438 L 6.703125 -9.558594 Z M 5.855469 -9.558594 "/></g></g></g><g fill="#2165f2" fill-opacity="1"><g transform="translate(135.455485, 18.762403)"><g><path d="M 9.628906 -9.523438 L 9.4375 -8.058594 C 8.554688 -9.101562 7.230469 -9.71875 5.679688 -9.71875 C 2.855469 -9.71875 0.742188 -7.601562 0.742188 -4.746094 C 0.742188 -1.921875 2.855469 0.210938 5.679688 0.210938 C 7.230469 0.210938 8.535156 -0.40625 9.417969 -1.429688 L 9.578125 0 L 10.8125 0 L 10.8125 -9.523438 Z M 5.785156 -1.234375 C 3.773438 -1.234375 2.273438 -2.75 2.273438 -4.761719 C 2.273438 -6.753906 3.773438 -8.273438 5.785156 -8.273438 C 7.8125 -8.273438 9.277344 -6.773438 9.277344 -4.761719 C 9.277344 -2.734375 7.8125 -1.234375 5.785156 -1.234375 Z M 5.785156 -1.234375 "/></g></g></g><g fill="#2165f2" fill-opacity="1"><g transform="translate(147.783804, 18.762403)"><g><path d="M 5.449219 -1.375 C 4.144531 -1.375 3.4375 -2.082031 3.4375 -3.367188 L 3.4375 -8.167969 L 6.4375 -8.167969 L 6.4375 -9.523438 L 3.4375 -9.523438 L 3.4375 -11.535156 L 3.210938 -11.535156 L 0.265625 -8.429688 L 0.265625 -8.167969 L 1.941406 -8.167969 L 1.941406 -3.316406 C 1.941406 -1.253906 3.210938 0 5.257812 0 L 6.492188 0 L 6.492188 -1.375 Z M 5.449219 -1.375 "/></g></g></g><g fill="#2165f2" fill-opacity="1"><g transform="translate(154.768095, 18.762403)"><g><path d="M 3.191406 -11.164062 L 4.921875 -11.164062 L 4.921875 -12.875 L 3.191406 -12.875 Z M 6.667969 -11.164062 L 8.394531 -11.164062 L 8.394531 -12.875 L 6.667969 -12.875 Z M 5.804688 0.210938 C 8.679688 0.210938 10.847656 -1.90625 10.847656 -4.761719 C 10.847656 -7.601562 8.679688 -9.71875 5.804688 -9.71875 C 2.910156 -9.71875 0.742188 -7.621094 0.742188 -4.761719 C 0.742188 -1.90625 2.910156 0.210938 5.804688 0.210938 Z M 5.804688 -1.234375 C 3.757812 -1.234375 2.273438 -2.714844 2.273438 -4.761719 C 2.273438 -6.789062 3.757812 -8.273438 5.804688 -8.273438 C 7.832031 -8.273438 9.3125 -6.789062 9.3125 -4.746094 C 9.3125 -2.714844 7.832031 -1.234375 5.804688 -1.234375 Z M 5.804688 -1.234375 "/></g></g></g><g fill="#2165f2" fill-opacity="1"><g transform="translate(166.390931, 18.762403)"><g><path d="M 5.855469 -9.558594 C 4.480469 -9.558594 3.492188 -9.046875 2.804688 -8.058594 L 2.574219 -9.523438 L 1.5 -9.523438 L 1.5 0 L 3 0 L 3 -5.167969 C 3 -7.019531 3.984375 -8.148438 5.730469 -8.148438 L 6.703125 -8.148438 L 6.703125 -9.558594 Z M 5.855469 -9.558594 "/></g></g></g></svg>