<svg xmlns="http://www.w3.org/2000/svg" xmlns:xlink="http://www.w3.org/1999/xlink" width="240" zoomAndPan="magnify" viewBox="0 0 180 30.000001" height="40" preserveAspectRatio="xMidYMid meet" version="1.0"><defs><g/><clipPath id="80a81e6afb"><path d="M 7.984375 1.125 L 34.839844 1.125 L 34.839844 27.980469 L 7.984375 27.980469 Z M 7.984375 1.125 " clip-rule="nonzero"/></clipPath></defs><g clip-path="url(#80a81e6afb)"><path fill="#2165f2" d="M 34.835938 14.550781 C 34.835938 21.953125 28.8125 27.976562 21.410156 27.976562 C 21.148438 27.976562 20.886719 27.96875 20.628906 27.953125 L 20.628906 26.757812 C 20.886719 26.773438 21.148438 26.785156 21.410156 26.785156 C 28.15625 26.785156 33.644531 21.296875 33.644531 14.550781 C 33.644531 7.804688 28.15625 2.316406 21.410156 2.316406 C 21.148438 2.316406 20.886719 2.328125 20.628906 2.34375 C 14.246094 2.75 9.175781 8.070312 9.175781 14.550781 C 9.175781 18.449219 11.011719 21.925781 13.863281 24.167969 L 13.863281 14.582031 C 13.863281 12.425781 14.570312 10.671875 16.023438 9.214844 C 17.480469 7.761719 19.234375 7.054688 21.390625 7.054688 C 23.550781 7.054688 25.3125 7.761719 26.78125 9.21875 C 28.246094 10.675781 28.957031 12.429688 28.957031 14.582031 C 28.957031 16.742188 28.242188 18.5 26.777344 19.96875 C 25.308594 21.433594 23.546875 22.148438 21.390625 22.148438 C 21.066406 22.148438 20.976562 22.054688 20.929688 22.007812 C 20.878906 21.953125 20.773438 21.84375 20.773438 21.492188 C 20.773438 21.152344 20.867188 21.058594 20.914062 21.011719 C 20.957031 20.964844 21.054688 20.871094 21.390625 20.871094 C 23.117188 20.871094 24.613281 20.25 25.835938 19.027344 C 27.058594 17.804688 27.679688 16.308594 27.679688 14.582031 C 27.679688 12.878906 27.039062 11.34375 25.828125 10.148438 C 24.605469 8.941406 23.113281 8.332031 21.390625 8.332031 C 19.667969 8.332031 18.175781 8.945312 16.964844 10.15625 C 15.753906 11.367188 15.140625 12.855469 15.140625 14.582031 L 15.140625 26.417969 C 14.699219 26.183594 14.273438 25.929688 13.863281 25.648438 C 10.316406 23.230469 7.984375 19.15625 7.984375 14.550781 C 7.984375 7.410156 13.585938 1.558594 20.628906 1.148438 C 20.886719 1.132812 21.148438 1.125 21.410156 1.125 C 28.8125 1.125 34.835938 7.148438 34.835938 14.550781 Z M 34.835938 14.550781 " fill-opacity="1" fill-rule="nonzero"/></g><g fill="#2165f2" fill-opacity="1"><g transform="translate(38.448038, 19.312084)"><g><path d="M 6.476562 -9.59375 C 4.960938 -9.59375 3.671875 -8.984375 2.804688 -7.957031 L 2.507812 -9.402344 L 1.480469 -9.402344 L 1.480469 3.359375 L 2.960938 3.359375 L 2.960938 -1.253906 C 3.828125 -0.332031 5.066406 0.207031 6.476562 0.207031 C 9.277344 0.207031 11.296875 -1.898438 11.296875 -4.699219 C 11.296875 -7.503906 9.277344 -9.59375 6.476562 -9.59375 Z M 6.371094 -1.21875 C 4.371094 -1.21875 2.90625 -2.714844 2.90625 -4.699219 C 2.90625 -6.667969 4.371094 -8.164062 6.371094 -8.164062 C 8.355469 -8.164062 9.820312 -6.683594 9.820312 -4.699219 C 9.820312 -2.699219 8.355469 -1.21875 6.371094 -1.21875 Z M 6.371094 -1.21875 "/></g></g></g><g fill="#2165f2" fill-opacity="1"><g transform="translate(50.512684, 19.312084)"><g><path d="M 5.726562 0.207031 C 8.566406 0.207031 10.707031 -1.878906 10.707031 -4.699219 C 10.707031 -7.503906 8.566406 -9.59375 5.726562 -9.59375 C 2.871094 -9.59375 0.730469 -7.519531 0.730469 -4.699219 C 0.730469 -1.878906 2.871094 0.207031 5.726562 0.207031 Z M 5.726562 -1.21875 C 3.707031 -1.21875 2.246094 -2.679688 2.246094 -4.699219 C 2.246094 -6.703125 3.707031 -8.164062 5.726562 -8.164062 C 7.730469 -8.164062 9.191406 -6.703125 9.191406 -4.683594 C 9.191406 -2.679688 7.730469 -1.21875 5.726562 -1.21875 Z M 5.726562 -1.21875 "/></g></g></g><g fill="#2165f2" fill-opacity="1"><g transform="translate(61.985415, 19.312084)"><g><path d="M 4.457031 0.207031 C 6.683594 0.207031 8.183594 -0.921875 8.183594 -2.679688 C 8.183594 -4.980469 6.265625 -5.292969 4.648438 -5.554688 C 3.394531 -5.746094 2.316406 -5.9375 2.316406 -6.929688 C 2.316406 -7.746094 3.117188 -8.269531 4.386719 -8.269531 C 5.710938 -8.269531 6.511719 -7.710938 6.5625 -6.683594 L 7.957031 -6.683594 C 7.902344 -8.460938 6.546875 -9.59375 4.421875 -9.59375 C 2.296875 -9.59375 0.871094 -8.496094 0.871094 -6.875 C 0.871094 -4.753906 2.679688 -4.421875 4.28125 -4.144531 C 5.554688 -3.933594 6.71875 -3.726562 6.71875 -2.613281 C 6.71875 -1.707031 5.796875 -1.148438 4.507812 -1.148438 C 3.1875 -1.148438 2.226562 -1.757812 2.160156 -2.871094 L 0.695312 -2.871094 C 0.785156 -0.976562 2.226562 0.207031 4.457031 0.207031 Z M 4.457031 0.207031 "/></g></g></g><g fill="#2165f2" fill-opacity="1"><g transform="translate(70.916389, 19.312084)"><g/></g></g><g fill="#2165f2" fill-opacity="1"><g transform="translate(75.477626, 19.312084)"><g><path d="M 10.273438 -4.648438 C 10.273438 -7.398438 8.390625 -9.59375 5.535156 -9.59375 C 2.804688 -9.59375 0.75 -7.484375 0.75 -4.699219 C 0.75 -1.898438 2.804688 0.207031 5.535156 0.207031 C 7.574219 0.207031 9.226562 -0.921875 10.027344 -2.855469 L 8.460938 -2.855469 C 7.886719 -1.84375 6.84375 -1.234375 5.535156 -1.234375 C 3.761719 -1.234375 2.453125 -2.386719 2.226562 -4.125 L 10.238281 -4.125 C 10.253906 -4.300781 10.273438 -4.472656 10.273438 -4.648438 Z M 5.535156 -8.199219 C 7.207031 -8.199219 8.476562 -7.15625 8.792969 -5.484375 L 2.261719 -5.484375 C 2.558594 -7.121094 3.828125 -8.199219 5.535156 -8.199219 Z M 5.535156 -8.199219 "/></g></g></g><g fill="#2165f2" fill-opacity="1"><g transform="translate(86.480306, 19.312084)"><g><path d="M 6.179688 -9.59375 C 4.734375 -9.59375 3.535156 -8.964844 2.820312 -7.921875 L 2.542969 -9.402344 L 1.480469 -9.402344 L 1.480469 0 L 2.960938 0 L 2.960938 -5.117188 C 2.960938 -6.875 4.195312 -8.253906 5.816406 -8.253906 C 7.433594 -8.253906 8.339844 -7.171875 8.339844 -5.273438 L 8.339844 0 L 9.820312 0 L 9.820312 -5.625 C 9.820312 -7.921875 8.425781 -9.59375 6.179688 -9.59375 Z M 6.179688 -9.59375 "/></g></g></g><g fill="#2165f2" fill-opacity="1"><g transform="translate(97.657079, 19.312084)"><g><path d="M 5.378906 -1.359375 C 4.089844 -1.359375 3.394531 -2.054688 3.394531 -3.324219 L 3.394531 -8.058594 L 6.355469 -8.058594 L 6.355469 -9.402344 L 3.394531 -9.402344 L 3.394531 -11.386719 L 3.167969 -11.386719 L 0.261719 -8.320312 L 0.261719 -8.058594 L 1.914062 -8.058594 L 1.914062 -3.273438 C 1.914062 -1.234375 3.167969 0 5.1875 0 L 6.40625 0 L 6.40625 -1.359375 Z M 5.378906 -1.359375 "/></g></g></g><g fill="#2165f2" fill-opacity="1"><g transform="translate(104.551161, 19.312084)"><g><path d="M 10.273438 -4.648438 C 10.273438 -7.398438 8.390625 -9.59375 5.535156 -9.59375 C 2.804688 -9.59375 0.75 -7.484375 0.75 -4.699219 C 0.75 -1.898438 2.804688 0.207031 5.535156 0.207031 C 7.574219 0.207031 9.226562 -0.921875 10.027344 -2.855469 L 8.460938 -2.855469 C 7.886719 -1.84375 6.84375 -1.234375 5.535156 -1.234375 C 3.761719 -1.234375 2.453125 -2.386719 2.226562 -4.125 L 10.238281 -4.125 C 10.253906 -4.300781 10.273438 -4.472656 10.273438 -4.648438 Z M 5.535156 -8.199219 C 7.207031 -8.199219 8.476562 -7.15625 8.792969 -5.484375 L 2.261719 -5.484375 C 2.558594 -7.121094 3.828125 -8.199219 5.535156 -8.199219 Z M 5.535156 -8.199219 "/></g></g></g><g fill="#2165f2" fill-opacity="1"><g transform="translate(115.553838, 19.312084)"><g><path d="M 9.246094 -9.402344 L 9.019531 -7.9375 C 8.164062 -8.964844 6.875 -9.59375 5.363281 -9.59375 C 2.75 -9.59375 0.75 -7.554688 0.75 -4.945312 C 0.75 -2.316406 2.75 -0.296875 5.363281 -0.296875 C 6.753906 -0.296875 7.957031 -0.816406 8.792969 -1.6875 L 8.792969 -1.113281 C 8.792969 0.976562 7.503906 2.210938 5.625 2.210938 C 4.265625 2.210938 3.082031 1.550781 2.664062 0.382812 L 1.183594 0.382812 C 1.6875 2.367188 3.324219 3.570312 5.625 3.570312 C 8.496094 3.570312 10.238281 1.722656 10.238281 -1.304688 L 10.238281 -9.382812 Z M 5.519531 -1.707031 C 3.636719 -1.707031 2.246094 -3.097656 2.246094 -4.945312 C 2.246094 -6.789062 3.636719 -8.183594 5.519531 -8.183594 C 7.398438 -8.183594 8.773438 -6.808594 8.773438 -4.945312 C 8.773438 -3.082031 7.417969 -1.707031 5.519531 -1.707031 Z M 5.519531 -1.707031 "/></g></g></g><g fill="#2165f2" fill-opacity="1"><g transform="translate(127.28771, 19.312084)"><g><path d="M 5.78125 -9.4375 C 4.421875 -9.4375 3.445312 -8.929688 2.769531 -7.957031 L 2.542969 -9.402344 L 1.480469 -9.402344 L 1.480469 0 L 2.960938 0 L 2.960938 -5.101562 C 2.960938 -6.929688 3.933594 -8.042969 5.65625 -8.042969 L 6.617188 -8.042969 L 6.617188 -9.4375 Z M 5.78125 -9.4375 "/></g></g></g><g fill="#2165f2" fill-opacity="1"><g transform="translate(134.007705, 19.312084)"><g><path d="M 9.503906 -9.402344 L 9.3125 -7.957031 C 8.445312 -8.984375 7.136719 -9.59375 5.605469 -9.59375 C 2.820312 -9.59375 0.730469 -7.503906 0.730469 -4.683594 C 0.730469 -1.898438 2.820312 0.207031 5.605469 0.207031 C 7.136719 0.207031 8.425781 -0.402344 9.296875 -1.410156 L 9.453125 0 L 10.671875 0 L 10.671875 -9.402344 Z M 5.710938 -1.21875 C 3.726562 -1.21875 2.246094 -2.714844 2.246094 -4.699219 C 2.246094 -6.667969 3.726562 -8.164062 5.710938 -8.164062 C 7.710938 -8.164062 9.15625 -6.683594 9.15625 -4.699219 C 9.15625 -2.699219 7.710938 -1.21875 5.710938 -1.21875 Z M 5.710938 -1.21875 "/></g></g></g><g fill="#2165f2" fill-opacity="1"><g transform="translate(146.176813, 19.312084)"><g><path d="M 5.378906 -1.359375 C 4.089844 -1.359375 3.394531 -2.054688 3.394531 -3.324219 L 3.394531 -8.058594 L 6.355469 -8.058594 L 6.355469 -9.402344 L 3.394531 -9.402344 L 3.394531 -11.386719 L 3.167969 -11.386719 L 0.261719 -8.320312 L 0.261719 -8.058594 L 1.914062 -8.058594 L 1.914062 -3.273438 C 1.914062 -1.234375 3.167969 0 5.1875 0 L 6.40625 0 L 6.40625 -1.359375 Z M 5.378906 -1.359375 "/></g></g></g><g fill="#2165f2" fill-opacity="1"><g transform="translate(153.070901, 19.312084)"><g><path d="M 3.152344 -11.019531 L 4.855469 -11.019531 L 4.855469 -12.707031 L 3.152344 -12.707031 Z M 6.582031 -11.019531 L 8.285156 -11.019531 L 8.285156 -12.707031 L 6.582031 -12.707031 Z M 5.726562 0.207031 C 8.566406 0.207031 10.707031 -1.878906 10.707031 -4.699219 C 10.707031 -7.503906 8.566406 -9.59375 5.726562 -9.59375 C 2.871094 -9.59375 0.730469 -7.519531 0.730469 -4.699219 C 0.730469 -1.878906 2.871094 0.207031 5.726562 0.207031 Z M 5.726562 -1.21875 C 3.707031 -1.21875 2.246094 -2.679688 2.246094 -4.699219 C 2.246094 -6.703125 3.707031 -8.164062 5.726562 -8.164062 C 7.730469 -8.164062 9.191406 -6.703125 9.191406 -4.683594 C 9.191406 -2.679688 7.730469 -1.21875 5.726562 -1.21875 Z M 5.726562 -1.21875 "/></g></g></g><g fill="#2165f2" fill-opacity="1"><g transform="translate(164.543636, 19.312084)"><g><path d="M 5.78125 -9.4375 C 4.421875 -9.4375 3.445312 -8.929688 2.769531 -7.957031 L 2.542969 -9.402344 L 1.480469 -9.402344 L 1.480469 0 L 2.960938 0 L 2.960938 -5.101562 C 2.960938 -6.929688 3.933594 -8.042969 5.65625 -8.042969 L 6.617188 -8.042969 L 6.617188 -9.4375 Z M 5.78125 -9.4375 "/></g></g></g></svg>