<svg xmlns="http://www.w3.org/2000/svg" xmlns:xlink="http://www.w3.org/1999/xlink" width="40" zoomAndPan="magnify" viewBox="0 0 30 30.000001" height="40" preserveAspectRatio="xMidYMid meet" version="1.0"><defs><clipPath id="f0d17fc707"><path d="M 1.425781 0.945312 L 28.28125 0.945312 L 28.28125 27.796875 L 1.425781 27.796875 Z M 1.425781 0.945312 " clip-rule="nonzero"/></clipPath></defs><g clip-path="url(#f0d17fc707)"><path fill="#004aad" d="M 14.855469 0.945312 C 13.972656 0.945312 13.101562 1.03125 12.234375 1.203125 C 11.371094 1.375 10.53125 1.628906 9.714844 1.964844 C 8.902344 2.304688 8.128906 2.714844 7.394531 3.207031 C 6.660156 3.695312 5.984375 4.253906 5.359375 4.875 C 4.738281 5.5 4.179688 6.179688 3.691406 6.910156 C 3.199219 7.644531 2.785156 8.417969 2.449219 9.234375 C 2.113281 10.046875 1.859375 10.886719 1.683594 11.75 C 1.511719 12.617188 1.425781 13.488281 1.425781 14.371094 C 1.425781 15.253906 1.511719 16.125 1.683594 16.992188 C 1.859375 17.855469 2.113281 18.695312 2.449219 19.507812 C 2.785156 20.324219 3.199219 21.097656 3.691406 21.832031 C 4.179688 22.5625 4.738281 23.242188 5.359375 23.867188 C 5.984375 24.488281 6.660156 25.046875 7.394531 25.535156 C 8.128906 26.023438 8.902344 26.4375 9.714844 26.777344 C 10.53125 27.113281 11.371094 27.367188 12.234375 27.539062 C 13.101562 27.710938 13.972656 27.796875 14.855469 27.796875 C 15.738281 27.796875 16.609375 27.710938 17.472656 27.539062 C 18.339844 27.367188 19.179688 27.113281 19.992188 26.777344 C 20.808594 26.4375 21.582031 26.023438 22.316406 25.535156 C 23.046875 25.046875 23.726562 24.488281 24.347656 23.867188 C 24.972656 23.242188 25.53125 22.5625 26.019531 21.832031 C 26.507812 21.097656 26.921875 20.324219 27.261719 19.507812 C 27.597656 18.695312 27.851562 17.855469 28.023438 16.992188 C 28.195312 16.125 28.28125 15.253906 28.28125 14.371094 C 28.28125 13.488281 28.195312 12.617188 28.023438 11.75 C 27.851562 10.886719 27.597656 10.046875 27.261719 9.234375 C 26.921875 8.417969 26.507812 7.644531 26.019531 6.910156 C 25.53125 6.179688 24.972656 5.5 24.347656 4.875 C 23.726562 4.253906 23.046875 3.695312 22.316406 3.207031 C 21.582031 2.714844 20.808594 2.304688 19.992188 1.964844 C 19.179688 1.628906 18.339844 1.375 17.472656 1.203125 C 16.609375 1.03125 15.738281 0.945312 14.855469 0.945312 Z M 16.773438 19.054688 C 16.652344 19.074219 16.535156 19.066406 16.417969 19.03125 C 16.300781 18.996094 16.199219 18.941406 16.105469 18.863281 C 16.015625 18.78125 15.941406 18.6875 15.890625 18.578125 C 15.839844 18.46875 15.816406 18.351562 15.8125 18.230469 L 15.8125 16.027344 C 15.8125 15.832031 15.871094 15.660156 15.992188 15.511719 C 16.113281 15.359375 16.265625 15.261719 16.453125 15.21875 C 16.808594 15.140625 17.132812 14.996094 17.433594 14.789062 C 17.734375 14.585938 17.988281 14.332031 18.195312 14.03125 C 18.398438 13.730469 18.539062 13.402344 18.621094 13.046875 C 18.699219 12.691406 18.710938 12.332031 18.65625 11.972656 C 18.601562 11.613281 18.480469 11.277344 18.296875 10.960938 C 18.113281 10.648438 17.878906 10.378906 17.59375 10.152344 C 17.308594 9.929688 16.988281 9.761719 16.640625 9.660156 C 16.292969 9.554688 15.9375 9.515625 15.574219 9.546875 C 15.210938 9.578125 14.867188 9.671875 14.539062 9.835938 C 14.214844 9.996094 13.925781 10.210938 13.683594 10.480469 C 13.4375 10.75 13.25 11.054688 13.121094 11.394531 C 12.992188 11.738281 12.933594 12.089844 12.9375 12.453125 L 12.9375 21.5625 C 12.9375 21.753906 12.898438 21.9375 12.828125 22.113281 C 12.753906 22.292969 12.648438 22.445312 12.515625 22.582031 C 12.378906 22.714844 12.226562 22.820312 12.046875 22.894531 C 11.871094 22.964844 11.6875 23.003906 11.496094 23.003906 L 10.539062 23.003906 C 10.347656 23.003906 10.164062 22.964844 9.988281 22.894531 C 9.8125 22.820312 9.65625 22.714844 9.523438 22.582031 C 9.386719 22.445312 9.28125 22.292969 9.210938 22.113281 C 9.136719 21.9375 9.101562 21.753906 9.101562 21.5625 L 9.101562 12.625 C 9.09375 12.191406 9.132812 11.765625 9.207031 11.339844 C 9.285156 10.914062 9.402344 10.496094 9.554688 10.09375 C 9.710938 9.691406 9.902344 9.304688 10.132812 8.9375 C 10.363281 8.570312 10.625 8.230469 10.917969 7.910156 C 11.210938 7.59375 11.53125 7.308594 11.878906 7.050781 C 12.230469 6.792969 12.597656 6.574219 12.988281 6.386719 C 13.378906 6.203125 13.785156 6.054688 14.203125 5.945312 C 14.621094 5.835938 15.046875 5.765625 15.476562 5.738281 C 15.894531 5.734375 16.308594 5.765625 16.71875 5.839844 C 17.132812 5.910156 17.53125 6.019531 17.921875 6.167969 C 18.3125 6.3125 18.6875 6.492188 19.042969 6.710938 C 19.398438 6.925781 19.734375 7.171875 20.042969 7.453125 C 20.355469 7.730469 20.636719 8.035156 20.890625 8.367188 C 21.144531 8.695312 21.367188 9.046875 21.554688 9.421875 C 21.742188 9.792969 21.894531 10.179688 22.011719 10.578125 C 22.128906 10.980469 22.207031 11.386719 22.246094 11.800781 C 22.285156 12.21875 22.289062 12.632812 22.25 13.046875 C 22.214844 13.464844 22.140625 13.871094 22.027344 14.273438 C 21.914062 14.675781 21.761719 15.0625 21.578125 15.4375 C 21.394531 15.808594 21.175781 16.164062 20.921875 16.496094 C 20.671875 16.828125 20.390625 17.136719 20.082031 17.417969 C 19.777344 17.699219 19.445312 17.949219 19.089844 18.167969 C 18.734375 18.386719 18.363281 18.570312 17.972656 18.71875 C 17.582031 18.867188 17.183594 18.980469 16.773438 19.054688 Z M 16.773438 19.054688 " fill-opacity="1" fill-rule="nonzero"/></g></svg>