<?xml version="1.0" encoding="UTF-8" standalone="no"?>
<!DOCTYPE svg PUBLIC "-//W3C//DTD SVG 1.1//EN" "http://www.w3.org/Graphics/SVG/1.1/DTD/svg11.dtd">
<svg xmlns="http://www.w3.org/2000/svg" version="1.1" viewBox="0.00 0.00 577.00 433.00">
<path fill="#ef6023" d="
  M 132.06 216.30
  A 41.50 41.50 0.0 0 1 90.56 257.80
  A 41.50 41.50 0.0 0 1 49.06 216.30
  A 41.50 41.50 0.0 0 1 90.56 174.80
  A 41.50 41.50 0.0 0 1 132.06 216.30
  Z
  M 111.76 216.60
  C 113.42 213.11 110.02 209.75 108.02 206.54
  C 106.47 204.04 101.29 198.08 98.32 197.18
  Q 96.30 196.58 95.37 196.09
  Q 88.98 192.74 81.77 195.10
  Q 79.35 195.89 79.12 198.39
  A 0.38 0.37 5.2 0 0 79.47 198.80
  Q 84.08 199.08 88.63 199.72
  C 95.83 200.73 101.89 206.09 104.33 212.78
  C 105.08 214.82 105.26 217.45 106.04 219.78
  Q 106.20 220.26 106.02 220.74
  C 105.39 222.44 105.11 224.48 104.46 225.90
  C 101.56 232.24 95.45 235.39 88.55 234.08
  Q 78.63 232.19 78.53 220.69
  C 78.51 218.53 80.81 214.96 82.68 214.03
  C 86.00 212.38 89.36 213.06 92.85 214.30
  Q 93.67 214.59 94.16 214.42
  Q 94.88 214.16 95.03 213.34
  Q 95.12 212.84 94.70 212.54
  L 90.20 209.35
  Q 89.77 209.04 89.24 209.06
  C 81.98 209.30 78.15 211.46 74.67 217.16
  Q 73.28 219.42 72.88 222.68
  Q 72.35 227.03 72.89 228.58
  C 79.13 246.56 108.13 238.58 110.36 222.14
  C 110.55 220.70 111.34 219.92 112.07 218.76
  Q 112.33 218.34 112.07 217.92
  L 111.82 217.52
  Q 111.54 217.07 111.76 216.60
  Z"
/>
<path fill="#ef6023" d="
  M 221.01 233.49
  Q 221.01 231.45 219.75 233.06
  C 217.21 236.33 213.70 237.89 209.45 237.88
  C 191.54 237.85 187.53 214.53 195.99 202.46
  C 201.35 194.81 213.55 192.99 219.51 200.66
  Q 220.70 202.20 220.70 200.25
  L 220.67 180.46
  A 0.62 0.61 -0.5 0 1 221.29 179.84
  L 230.54 179.88
  A 0.92 0.92 0.0 0 1 231.46 180.80
  L 231.46 235.99
  A 0.96 0.96 0.0 0 1 230.50 236.95
  L 222.26 237.00
  A 1.25 1.24 -0.0 0 1 221.01 235.76
  L 221.01 233.49
  Z
  M 212.1847 229.4798
  A 12.35 9.31 89.7 0 0 221.4299 217.0813
  A 12.35 9.31 89.7 0 0 212.0553 204.7802
  A 12.35 9.31 89.7 0 0 202.8101 217.1787
  A 12.35 9.31 89.7 0 0 212.1847 229.4798
  Z"
/>
<path fill="#ef6023" d="
  M 387.06 206.87
  L 387.04 236.08
  A 0.85 0.85 0.0 0 1 386.20 236.92
  L 377.17 236.98
  A 0.85 0.85 0.0 0 1 376.32 236.13
  L 376.32 206.88
  A 0.85 0.85 0.0 0 0 375.47 206.03
  L 370.71 206.02
  A 0.85 0.85 0.0 0 1 369.86 205.18
  L 369.80 197.65
  A 0.85 0.85 0.0 0 1 370.67 196.79
  L 375.45 196.90
  A 0.85 0.85 0.0 0 0 376.32 196.05
  L 376.27 180.68
  A 0.85 0.85 0.0 0 1 377.13 179.82
  L 386.25 179.86
  A 0.85 0.85 0.0 0 1 387.10 180.71
  L 387.02 196.07
  A 0.85 0.85 0.0 0 0 387.88 196.92
  L 393.41 196.88
  A 0.85 0.85 0.0 0 1 394.27 197.73
  L 394.22 205.15
  A 0.85 0.85 0.0 0 1 393.38 205.99
  L 387.90 206.03
  A 0.85 0.85 0.0 0 0 387.06 206.87
  Z"
/>
<path fill="#ef6023" d="
  M 174.18 200.67
  Q 175.37 201.57 175.25 200.08
  Q 175.13 198.71 175.47 197.42
  A 0.67 0.66 -82.6 0 1 176.11 196.92
  L 184.55 196.83
  A 0.97 0.96 89.7 0 1 185.52 197.80
  L 185.51 236.35
  A 0.61 0.61 0.0 0 1 184.90 236.96
  L 176.24 236.98
  A 1.03 1.03 0.0 0 1 175.23 235.76
  Q 175.48 234.48 175.25 233.19
  A 0.49 0.49 0.0 0 0 174.38 232.98
  C 170.84 237.67 165.01 238.64 159.57 237.50
  C 146.75 234.83 144.10 219.01 146.89 208.63
  C 149.66 198.33 160.38 192.82 170.26 197.46
  C 171.85 198.20 172.84 199.66 174.18 200.67
  Z
  M 165.9516 229.2400
  A 12.38 9.24 89.9 0 0 175.1700 216.8439
  A 12.38 9.24 89.9 0 0 165.9084 204.4800
  A 12.38 9.24 89.9 0 0 156.6900 216.8761
  A 12.38 9.24 89.9 0 0 165.9516 229.2400
  Z"
/>
<path fill="#ef6023" d="
  M 308.38 232.76
  Q 305.32 236.26 303.73 236.76
  C 276.19 245.45 271.46 200.81 293.39 196.17
  C 298.04 195.19 304.45 196.13 307.47 200.39
  Q 308.69 202.09 308.96 200.02
  L 309.31 197.42
  Q 309.38 196.86 309.95 196.86
  L 318.54 196.88
  A 0.91 0.91 0.0 0 1 319.45 197.79
  L 319.44 236.07
  Q 319.44 236.94 318.56 236.95
  L 310.22 237.00
  A 1.06 1.05 88.9 0 1 309.16 235.97
  L 309.08 233.02
  A 0.40 0.40 0.0 0 0 308.38 232.76
  Z
  M 299.8881 229.2495
  A 12.39 9.23 89.5 0 0 309.0096 216.7795
  A 12.39 9.23 89.5 0 0 299.6719 204.4705
  A 12.39 9.23 89.5 0 0 290.5504 216.9405
  A 12.39 9.23 89.5 0 0 299.8881 229.2495
  Z"
/>
<path fill="#ef6023" d="
  M 339.21 201.57
  Q 346.30 192.97 356.92 196.86
  C 363.98 199.44 364.93 205.22 364.97 212.58
  Q 365.04 224.46 364.98 236.23
  A 0.73 0.73 0.0 0 1 364.25 236.95
  L 355.02 236.95
  Q 354.21 236.95 354.21 236.14
  Q 354.23 225.26 354.25 214.00
  C 354.26 211.54 354.02 208.51 352.35 206.70
  C 348.77 202.82 341.38 204.99 339.56 209.58
  Q 338.70 211.73 338.73 215.75
  Q 338.79 225.99 338.80 236.19
  A 0.79 0.79 0.0 0 1 338.01 236.98
  L 328.99 236.97
  A 0.98 0.98 0.0 0 1 328.01 235.99
  L 328.00 197.48
  Q 328.00 196.95 328.52 196.94
  L 337.29 196.82
  Q 337.82 196.81 338.09 197.28
  C 338.89 198.70 337.82 200.31 338.64 201.54
  Q 338.90 201.94 339.21 201.57
  Z"
/>
<path fill="#ef6023" d="
  M 425.78 200.52
  L 425.96 197.47
  Q 425.99 196.93 426.53 196.92
  L 435.36 196.86
  A 0.88 0.88 0.0 0 1 436.25 197.74
  L 436.24 235.99
  A 0.98 0.98 0.0 0 1 435.26 236.97
  L 426.97 237.00
  A 1.13 1.13 0.0 0 1 425.86 235.66
  Q 426.08 234.44 425.87 233.25
  A 0.55 0.55 0.0 0 0 424.88 233.02
  C 420.01 239.63 409.56 239.05 403.86 234.65
  C 396.46 228.94 395.17 216.88 397.62 208.38
  C 401.16 196.07 415.57 191.28 425.02 200.81
  Q 425.72 201.51 425.78 200.52
  Z
  M 426.2037 213.5145
  A 8.52 8.52 0.0 0 0 417.7433 204.9352
  L 416.3434 204.9254
  A 8.52 8.52 0.0 0 0 407.7641 213.3857
  L 407.7163 220.2255
  A 8.52 8.52 0.0 0 0 416.1767 228.8048
  L 417.5766 228.8146
  A 8.52 8.52 0.0 0 0 426.1559 220.3543
  L 426.2037 213.5145
  Z"
/>
<path fill="#ef6023" d="
  M 471.92 201.52
  A 0.47 0.47 0.0 0 0 472.78 201.24
  L 472.76 197.83
  A 0.91 0.91 0.0 0 1 473.67 196.91
  L 482.40 196.89
  A 0.73 0.73 0.0 0 1 483.13 197.62
  Q 483.17 217.14 483.02 236.75
  C 482.95 246.73 476.75 254.65 466.26 254.60
  Q 459.87 254.57 454.48 254.51
  Q 453.70 254.50 453.69 253.71
  L 453.62 246.03
  A 0.84 0.84 0.0 0 1 454.48 245.18
  Q 460.08 245.31 464.98 245.08
  C 472.24 244.74 472.43 238.22 472.50 232.67
  A 0.46 0.45 68.4 0 0 471.73 232.33
  C 470.13 233.89 468.66 235.53 466.51 236.22
  Q 455.77 239.61 448.51 231.74
  C 442.54 225.26 442.63 212.11 446.34 204.60
  C 451.16 194.82 465.27 192.22 471.92 201.52
  Z
  M 464.2700 228.4954
  A 11.82 9.34 88.4 0 0 473.2764 216.4192
  A 11.82 9.34 88.4 0 0 463.6100 204.8646
  A 11.82 9.34 88.4 0 0 454.6036 216.9408
  A 11.82 9.34 88.4 0 0 464.2700 228.4954
  Z"
/>
<path fill="#ef6023" d="
  M 501.18 223.85
  L 501.76 225.13
  Q 503.70 229.40 508.39 229.48
  C 513.35 229.56 514.20 227.94 516.52 224.91
  A 0.98 0.98 0.0 0 1 517.47 224.53
  L 526.50 225.99
  A 0.59 0.58 15.2 0 1 526.95 226.77
  C 523.14 236.92 512.26 239.57 502.37 237.12
  C 492.16 234.59 488.84 224.47 489.26 215.05
  C 489.82 202.28 498.18 194.68 511.53 195.97
  C 524.30 197.20 528.29 207.41 527.96 218.85
  Q 527.94 219.75 527.03 219.75
  L 503.82 219.76
  Q 499.32 219.76 501.18 223.85
  Z
  M 501.44 212.87
  L 516.12 212.89
  A 0.48 0.48 0.0 0 0 516.60 212.41
  L 516.60 212.24
  A 7.73 7.42 -89.9 0 0 509.20 204.50
  L 508.40 204.50
  A 7.73 7.42 -89.9 0 0 500.96 212.22
  L 500.96 212.39
  A 0.48 0.48 0.0 0 0 501.44 212.87
  Z"
/>
<path fill="#ef6023" d="
  M 258.68 219.14
  L 266.40 197.64
  A 1.21 1.19 -79.8 0 1 267.52 196.85
  L 278.53 196.88
  A 0.46 0.46 0.0 0 1 278.95 197.54
  L 261.28 236.23
  Q 261.05 236.74 260.48 236.82
  C 258.84 237.05 254.94 237.69 253.94 235.53
  Q 245.44 217.03 237.00 198.50
  Q 236.76 197.97 236.74 197.59
  A 0.72 0.72 0.0 0 1 237.46 196.83
  L 247.90 196.86
  A 1.70 1.69 -10.6 0 1 249.48 197.93
  L 257.92 219.15
  A 0.41 0.41 0.0 0 0 258.68 219.14
  Z"
/>
</svg>
