<?xml version="1.0" encoding="UTF-8" standalone="no"?>
<!DOCTYPE svg PUBLIC "-//W3C//DTD SVG 1.1//EN" "http://www.w3.org/Graphics/SVG/1.1/DTD/svg11.dtd">
<svg xmlns="http://www.w3.org/2000/svg" version="1.1" viewBox="0.00 0.00 646.00 323.00">
<path fill="#71c33d" d="
  M 230.18 133.35
  Q 230.18 134.46 231.21 134.05
  C 242.14 129.69 252.64 128.55 261.73 136.01
  C 277.86 149.26 278.54 181.34 267.23 196.92
  C 258.96 208.30 248.46 206.19 236.25 206.08
  Q 234.44 206.07 231.22 204.62
  Q 230.71 204.39 230.36 204.83
  C 229.72 205.62 229.17 206.12 228.07 206.13
  Q 219.53 206.28 211.13 206.18
  A 0.69 0.69 0.0 0 1 210.45 205.49
  L 210.50 102.26
  A 0.99 0.99 0.0 0 1 211.49 101.27
  L 228.89 101.26
  A 1.24 1.14 90.0 0 1 230.03 102.50
  L 230.18 133.35
  Z
  M 254.38 159.76
  C 253.46 147.95 236.60 146.69 231.55 155.90
  Q 230.24 158.29 230.26 162.78
  C 230.28 169.55 229.12 181.11 234.04 185.96
  C 242.17 193.96 253.33 187.12 254.26 176.84
  Q 255.04 168.30 254.38 159.76
  Z"
/>
<path fill="#fec013" d="
  M 91.77 164.50
  L 91.73 144.51
  A 1.22 1.22 0.0 0 1 92.95 143.29
  L 129.84 143.34
  A 1.22 1.22 0.0 0 0 131.06 142.12
  L 130.96 104.70
  A 1.22 1.22 0.0 0 1 132.18 103.48
  L 152.74 103.50
  A 1.22 1.22 0.0 0 1 153.96 104.72
  L 153.80 142.18
  A 1.22 1.22 0.0 0 0 155.03 143.41
  L 193.56 143.33
  A 1.22 1.22 0.0 0 1 194.78 144.55
  L 194.76 164.53
  A 1.22 1.22 0.0 0 1 193.54 165.75
  L 155.07 165.75
  A 1.22 1.22 0.0 0 0 153.85 166.97
  L 153.73 204.06
  A 1.22 1.22 0.0 0 1 152.51 205.28
  L 132.16 205.27
  A 1.22 1.22 0.0 0 1 130.94 204.05
  L 131.03 166.99
  A 1.22 1.22 0.0 0 0 129.81 165.77
  L 92.99 165.72
  A 1.22 1.22 0.0 0 1 91.77 164.50
  Z"
/>
<path fill="#71c33d" d="
  M 338.25 189.03
  C 332.30 201.19 319.69 206.66 306.61 205.29
  C 290.93 203.64 280.52 192.30 279.54 176.24
  Q 279.27 171.74 279.58 157.68
  C 279.74 150.47 281.37 144.13 286.13 139.37
  C 302.69 122.81 333.99 126.32 340.65 151.17
  Q 341.75 155.25 341.88 162.91
  C 342.04 173.02 342.48 180.39 338.25 189.03
  Z
  M 322.0762 158.4543
  A 10.52 10.52 0.0 0 0 311.4284 148.0636
  L 310.1485 148.0792
  A 10.52 10.52 0.0 0 0 299.7578 158.7270
  L 299.9638 175.5857
  A 10.52 10.52 0.0 0 0 310.6116 185.9764
  L 311.8915 185.9608
  A 10.52 10.52 0.0 0 0 322.2822 175.3130
  L 322.0762 158.4543
  Z"
/>
<path fill="#71c33d" d="
  M 464.94 202.89
  C 456.97 207.76 444.97 206.67 436.99 203.29
  C 429.28 200.03 424.01 191.60 422.93 183.19
  Q 422.68 181.18 422.69 170.81
  Q 422.72 150.48 422.72 130.45
  A 1.03 1.03 0.0 0 1 423.76 129.42
  L 441.47 129.44
  Q 442.58 129.44 442.59 130.55
  Q 442.80 154.12 442.74 177.00
  C 442.71 188.31 459.73 191.01 464.78 181.70
  Q 465.96 179.52 466.03 174.59
  Q 466.34 152.64 466.22 130.50
  A 1.05 1.05 0.0 0 1 467.27 129.44
  L 484.95 129.43
  A 1.02 1.01 -90.0 0 1 485.96 130.45
  L 485.95 205.50
  A 1.45 1.45 0.0 0 1 484.50 206.95
  L 466.75 206.95
  A 0.75 0.75 0.0 0 1 466.00 206.25
  L 465.78 203.32
  A 0.55 0.55 0.0 0 0 464.94 202.89
  Z"
/>
<path fill="#71c33d" d="
  M 514.34 147.57
  C 510.13 150.89 511.24 155.48 515.57 157.90
  Q 518.62 159.60 522.03 160.36
  C 535.89 163.46 559.32 166.04 555.45 186.98
  C 553.36 198.28 546.04 204.28 534.79 206.31
  C 519.47 209.08 504.37 205.17 495.12 191.98
  A 0.93 0.92 -38.2 0 1 495.27 190.75
  L 506.11 181.37
  A 0.72 0.72 0.0 0 1 507.11 181.42
  C 514.69 189.50 522.51 193.49 533.76 190.07
  Q 535.45 189.55 537.01 187.70
  C 541.99 181.75 533.21 178.12 528.83 177.37
  C 517.18 175.37 496.79 172.51 495.49 157.03
  C 493.32 130.94 521.30 124.74 540.49 132.21
  Q 550.14 135.97 556.18 144.99
  Q 556.50 145.47 556.06 145.85
  L 545.81 154.51
  A 0.69 0.69 0.0 0 1 544.81 154.41
  C 537.54 145.24 524.87 139.28 514.34 147.57
  Z"
/>
<path fill="#71c33d" d="
  M 372.21 133.81
  C 381.18 128.33 395.91 129.57 404.36 135.77
  C 411.71 141.18 414.51 149.83 414.52 158.63
  Q 414.56 182.25 414.49 206.04
  A 0.99 0.99 0.0 0 1 413.50 207.03
  L 395.50 207.00
  A 0.95 0.95 0.0 0 1 394.55 206.06
  Q 394.37 182.77 394.15 159.74
  Q 394.08 152.00 386.69 149.95
  C 379.63 148.00 371.00 151.75 371.00 160.00
  Q 370.97 181.79 370.99 205.78
  A 1.22 1.21 -90.0 0 1 369.78 207.00
  L 352.35 207.08
  A 1.09 1.09 0.0 0 1 351.26 205.99
  L 351.18 131.02
  Q 351.18 129.48 352.73 129.48
  L 370.45 129.49
  A 0.82 0.82 0.0 0 1 371.26 130.43
  Q 371.02 131.98 371.40 133.48
  A 0.54 0.54 0.0 0 0 372.21 133.81
  Z"
/>
</svg>
