<?xml version="1.0" encoding="UTF-8" standalone="no"?>
<!DOCTYPE svg PUBLIC "-//W3C//DTD SVG 1.1//EN" "http://www.w3.org/Graphics/SVG/1.1/DTD/svg11.dtd">
<svg xmlns="http://www.w3.org/2000/svg" version="1.1" viewBox="0.00 0.00 596.00 418.00">
<path fill="#032852" d="
  M 137.42 182.83
  A 0.34 0.33 22.3 0 0 137.93 182.62
  C 142.56 160.03 150.41 138.74 162.62 119.13
  C 169.13 108.69 177.67 98.01 187.52 91.38
  C 210.01 76.25 239.15 77.02 252.82 103.13
  C 265.13 126.64 255.37 157.29 239.30 176.31
  C 219.08 200.25 185.23 212.37 154.04 208.91
  Q 153.52 208.85 153.45 209.37
  C 150.03 238.87 150.14 269.12 150.48 298.76
  A 0.50 0.50 0.0 0 1 149.98 299.27
  L 131.56 299.24
  Q 131.13 299.23 131.13 298.81
  C 130.63 265.90 130.81 234.91 134.53 203.94
  Q 134.59 203.42 134.13 203.16
  C 130.55 201.18 126.62 199.19 123.51 196.94
  Q 107.14 185.10 98.79 166.52
  A 0.26 0.26 0.0 0 1 98.92 166.17
  L 115.74 158.41
  A 0.74 0.73 -24.2 0 1 116.73 158.78
  Q 123.42 173.98 137.42 182.83
  Z
  M 191.06 113.82
  C 172.41 134.14 161.66 162.17 156.74 189.11
  A 0.45 0.45 0.0 0 0 157.14 189.64
  C 173.82 191.49 191.38 187.13 205.71 179.21
  Q 230.70 165.41 237.74 137.02
  C 240.02 127.84 239.25 118.62 234.36 110.34
  C 224.11 92.98 201.39 102.56 191.06 113.82
  Z"
/>
<path fill="#032852" d="
  M 440.01 249.99
  Q 444.28 248.06 448.52 246.12
  Q 461.63 240.13 475.96 240.85
  A 0.40 0.39 4.1 0 1 476.34 241.28
  L 474.75 259.76
  Q 474.70 260.29 474.16 260.27
  C 461.45 259.80 448.40 266.65 438.40 273.97
  Q 437.99 274.27 437.98 274.77
  Q 437.03 304.88 439.18 334.93
  A 0.44 0.44 0.0 0 1 438.77 335.41
  L 420.26 336.79
  A 0.39 0.39 0.0 0 1 419.84 336.43
  Q 418.20 312.61 418.25 288.73
  Q 418.25 288.15 417.71 288.39
  C 404.42 294.52 394.16 291.69 388.95 277.86
  Q 388.75 277.32 388.33 277.72
  C 378.87 286.78 366.13 298.44 352.00 295.77
  Q 343.62 294.19 337.56 286.59
  Q 337.24 286.18 336.84 286.51
  C 328.67 293.28 318.60 296.75 308.46 291.10
  C 290.58 281.13 295.48 260.74 303.43 245.60
  Q 305.84 241.01 308.20 236.42
  A 0.43 0.42 24.1 0 0 307.97 235.83
  L 295.20 231.00
  Q 294.79 230.85 294.66 231.26
  C 289.22 248.28 280.88 267.60 270.06 280.53
  C 264.65 286.99 255.70 294.81 247.39 293.93
  C 238.97 293.04 232.61 286.72 230.18 278.71
  Q 229.37 276.04 228.69 273.33
  Q 228.54 272.74 228.12 273.18
  C 217.82 283.97 201.73 295.61 186.31 287.94
  C 168.22 278.95 173.70 253.59 180.75 239.52
  C 189.24 222.59 211.74 196.93 233.30 203.05
  C 239.19 204.73 246.05 209.86 251.80 213.58
  Q 252.22 213.85 252.21 214.34
  Q 252.17 221.33 251.76 224.01
  Q 249.31 239.96 247.59 256.00
  Q 246.66 264.66 248.43 272.92
  A 0.72 0.72 0.0 0 0 249.58 273.34
  Q 254.25 269.72 257.45 264.97
  Q 270.14 246.14 276.21 224.20
  Q 276.34 223.75 275.90 223.58
  C 270.64 221.48 264.29 219.46 260.15 216.33
  C 238.98 200.32 256.17 165.28 282.52 175.15
  C 295.31 179.94 299.05 195.77 298.39 208.01
  Q 298.32 209.40 298.34 210.81
  Q 298.35 211.35 298.87 211.55
  L 336.44 225.66
  A 0.25 0.25 0.0 0 1 336.57 226.02
  C 331.60 234.77 312.59 264.41 316.10 271.95
  Q 317.89 275.79 321.71 273.45
  C 333.39 266.30 334.87 254.09 341.22 242.45
  C 349.84 226.63 371.07 203.64 391.38 208.14
  C 397.92 209.59 405.77 215.34 411.62 219.26
  Q 412.05 219.54 412.02 220.06
  C 411.17 234.93 408.55 249.88 407.15 264.76
  Q 406.83 268.14 407.25 271.15
  Q 407.37 272.04 408.11 271.53
  L 418.70 264.17
  Q 419.13 263.87 419.16 263.35
  Q 421.40 212.84 436.75 164.75
  C 442.38 147.11 455.31 126.42 477.46 134.55
  C 488.10 138.45 492.77 150.66 493.17 161.26
  Q 493.93 181.47 486.15 200.05
  Q 485.90 200.65 485.31 200.39
  L 468.39 193.16
  A 0.30 0.30 0.0 0 1 468.23 192.77
  C 472.59 182.03 475.77 167.73 472.76 156.26
  C 471.10 149.97 465.22 151.95 462.46 155.97
  C 456.58 164.53 453.49 175.84 450.83 185.77
  Q 442.41 217.22 439.54 249.66
  Q 439.49 250.23 440.01 249.99
  Z
  M 270.33 195.85
  C 269.12 200.89 274.80 202.34 278.42 203.63
  Q 278.96 203.83 278.95 203.24
  C 278.87 200.81 278.04 194.46 275.53 193.39
  Q 271.34 191.61 270.33 195.85
  Z
  M 227.41 221.44
  C 209.76 224.07 193.38 250.37 193.45 266.50
  C 193.50 277.67 208.91 264.83 211.52 262.27
  C 221.97 252.05 229.94 237.73 229.06 222.78
  A 1.44 1.44 0.0 0 0 227.41 221.44
  Z
  M 378.18 229.89
  C 365.66 238.04 355.63 252.30 353.05 266.75
  C 350.16 282.92 362.30 274.80 367.63 270.38
  C 379.85 260.23 388.85 244.79 388.35 228.43
  A 1.44 1.44 0.0 0 0 386.88 227.03
  Q 382.45 227.12 378.18 229.89
  Z"
/>
<circle fill="#032852" cx="487.00" cy="282.03" r="10.29"/>
</svg>
