<?xml version="1.0" encoding="UTF-8" standalone="no"?>
<!DOCTYPE svg PUBLIC "-//W3C//DTD SVG 1.1//EN" "http://www.w3.org/Graphics/SVG/1.1/DTD/svg11.dtd">
<svg xmlns="http://www.w3.org/2000/svg" version="1.1" viewBox="0.00 0.00 300.00 180.00">
<path fill="#006547" d="
  M 137.68 28.10
  C 133.24 40.70 128.80 53.29 124.62 65.98
  Q 123.49 69.40 122.33 65.99
  Q 115.89 47.15 109.11 27.64
  C 108.09 24.69 108.49 22.41 110.46 19.83
  Q 116.70 11.63 122.85 3.61
  A 0.85 0.84 45.7 0 1 124.21 3.63
  Q 129.88 11.45 135.92 19.08
  Q 139.34 23.40 137.68 28.10
  Z"
/>
<path fill="#006547" d="
  M 83.42 47.84
  C 78.86 45.12 70.47 45.40 65.49 45.62
  Q 62.21 45.77 65.03 44.09
  Q 74.96 38.18 84.71 32.40
  Q 91.41 28.43 96.56 31.99
  Q 99.12 33.76 102.81 40.39
  Q 110.65 54.49 118.82 68.75
  Q 119.17 69.36 118.58 69.74
  Q 118.22 69.98 117.49 69.49
  Q 94.60 54.51 83.42 47.84
  Z"
/>
<path fill="#006547" d="
  M 127.62 69.64
  Q 136.18 54.61 144.39 39.86
  Q 147.88 33.58 150.53 31.92
  C 155.60 28.74 159.92 31.03 165.01 34.07
  Q 173.45 39.11 181.94 44.07
  Q 184.62 45.64 181.52 45.58
  C 173.48 45.42 167.46 45.22 160.08 49.87
  Q 144.49 59.70 129.00 69.69
  Q 128.36 70.10 127.74 69.93
  Q 127.50 69.86 127.62 69.64
  Z"
/>
<path fill="#006547" d="
  M 87.29 59.46
  Q 100.53 66.04 114.99 73.57
  Q 117.32 74.79 114.71 75.16
  C 114.23 75.23 112.41 74.87 111.56 74.86
  Q 83.08 74.59 54.88 74.88
  Q 54.28 74.89 54.62 74.39
  Q 57.91 69.60 61.91 65.15
  C 67.28 59.18 70.97 54.78 79.00 56.55
  Q 83.32 57.50 87.29 59.46
  Z"
/>
<path fill="#006547" d="
  M 131.92 73.67
  C 141.26 68.50 153.06 62.59 160.82 58.83
  C 168.51 55.10 175.98 54.94 181.90 61.61
  Q 186.94 67.30 191.73 73.31
  Q 192.88 74.75 191.03 74.75
  L 132.22 74.82
  Q 129.84 74.82 131.92 73.67
  Z"
/>
<circle fill="#006547" cx="123.44" cy="75.09" r="4.39"/>
<path fill="#006547" d="
  M 25.27 99.96
  Q 25.31 101.48 26.84 101.48
  Q 34.03 101.46 41.43 101.46
  C 46.80 101.46 50.27 102.91 50.30 108.73
  Q 50.34 116.17 50.35 123.61
  C 50.36 130.05 48.69 132.71 42.15 132.77
  Q 27.73 132.89 13.21 132.75
  A 0.58 0.58 0.0 0 1 12.64 132.17
  L 12.65 120.91
  A 0.70 0.69 -89.6 0 1 13.34 120.22
  L 36.74 120.28
  Q 37.50 120.28 37.53 119.51
  L 37.69 115.01
  A 0.78 0.78 0.0 0 0 36.91 114.21
  Q 30.13 114.21 23.24 114.13
  C 17.14 114.05 12.77 114.22 12.64 107.11
  Q 12.52 100.89 12.57 90.26
  Q 12.60 83.27 19.51 83.12
  Q 34.32 82.80 49.19 82.86
  A 1.18 1.17 89.8 0 1 50.36 84.03
  L 50.41 94.53
  A 0.95 0.95 0.0 0 1 49.46 95.49
  L 26.69 95.52
  Q 25.15 95.52 25.20 97.06
  L 25.27 99.96
  Z"
/>
<path fill="#006547" d="
  M 83.05 114.85
  A 0.71 0.70 89.6 0 0 82.35 114.15
  L 71.44 114.05
  A 0.78 0.77 -89.6 0 0 70.66 114.83
  L 70.66 131.71
  A 1.12 1.12 0.0 0 1 69.54 132.83
  L 59.17 132.88
  A 1.14 1.14 0.0 0 1 58.02 131.74
  Q 57.99 111.38 57.99 91.33
  C 57.99 86.05 59.61 83.07 65.10 82.98
  Q 76.62 82.80 88.15 82.95
  C 93.62 83.02 95.75 85.68 95.74 90.83
  Q 95.70 111.44 95.76 131.99
  A 0.80 0.79 -0.4 0 1 94.97 132.78
  L 84.19 132.93
  A 1.00 0.99 -0.3 0 1 83.18 131.94
  L 83.05 114.85
  Z
  M 83.2358 96.8222
  A 1.28 1.28 0.0 0 0 81.9603 95.5377
  L 71.8204 95.5023
  A 1.28 1.28 0.0 0 0 70.5359 96.7778
  L 70.5242 100.1378
  A 1.28 1.28 0.0 0 0 71.7997 101.4223
  L 81.9396 101.4577
  A 1.28 1.28 0.0 0 0 83.2241 100.1822
  L 83.2358 96.8222
  Z"
/>
<path fill="#006547" d="
  M 117.57 120.23
  L 127.52 120.35
  A 1.18 1.18 0.0 0 0 128.71 119.17
  L 128.73 102.08
  A 0.70 0.69 90.0 0 1 129.42 101.38
  L 140.68 101.38
  A 0.56 0.56 0.0 0 1 141.24 101.93
  L 141.43 131.81
  A 0.92 0.91 89.7 0 1 140.53 132.73
  Q 125.71 132.85 110.75 132.82
  C 104.42 132.81 103.50 128.90 103.50 123.31
  Q 103.50 107.98 103.49 92.67
  C 103.48 86.34 104.58 82.93 111.50 82.87
  Q 125.98 82.73 140.47 82.90
  A 0.84 0.83 -89.7 0 1 141.29 83.74
  L 141.36 94.82
  A 0.68 0.67 -0.4 0 1 140.68 95.50
  L 116.91 95.51
  A 0.83 0.83 0.0 0 0 116.08 96.34
  L 116.17 118.82
  Q 116.18 120.21 117.57 120.23
  Z"
/>
<path fill="#006547" d="
  M 163.07 120.25
  L 185.87 120.25
  A 0.87 0.87 0.0 0 1 186.74 121.12
  L 186.63 132.18
  A 0.80 0.80 0.0 0 1 185.82 132.97
  L 150.55 132.51
  A 1.01 1.01 0.0 0 1 149.57 131.70
  Q 149.35 130.64 149.32 129.25
  Q 148.83 106.29 148.91 83.30
  A 0.36 0.36 0.0 0 1 149.26 82.95
  L 160.76 82.88
  A 0.88 0.88 0.0 0 1 161.64 83.76
  L 161.63 118.82
  A 1.44 1.43 0.0 0 0 163.07 120.25
  Z"
/>
<path fill="#006547" d="
  M 207.19 114.81
  L 207.31 131.62
  Q 207.32 132.80 206.13 132.80
  L 195.26 132.76
  A 0.74 0.74 0.0 0 1 194.52 132.02
  Q 194.56 113.16 194.50 94.11
  C 194.47 85.03 195.53 82.98 204.69 82.89
  Q 213.79 82.81 222.93 82.86
  C 228.11 82.88 232.20 83.84 232.20 89.75
  Q 232.22 110.63 232.15 131.76
  Q 232.15 132.87 231.04 132.86
  L 220.45 132.73
  A 0.79 0.78 0.4 0 1 219.67 131.95
  L 219.55 115.10
  A 0.96 0.96 0.0 0 0 218.60 114.15
  L 207.95 114.05
  A 0.76 0.75 -89.6 0 0 207.19 114.81
  Z
  M 219.6621 96.7740
  A 1.20 1.20 0.0 0 0 218.4705 95.5656
  L 208.2907 95.4945
  A 1.20 1.20 0.0 0 0 207.0824 96.6861
  L 207.0579 100.1860
  A 1.20 1.20 0.0 0 0 208.2495 101.3944
  L 218.4293 101.4655
  A 1.20 1.20 0.0 0 0 219.6376 100.2739
  L 219.6621 96.7740
  Z"
/>
<path fill="#006547" d="
  M 253.23 103.49
  Q 252.69 102.64 252.69 103.65
  L 252.83 131.81
  A 0.89 0.89 0.0 0 1 251.94 132.71
  L 240.90 132.80
  A 0.66 0.66 0.0 0 1 240.23 132.14
  L 240.09 83.66
  A 0.75 0.75 0.0 0 1 240.84 82.91
  L 254.63 82.80
  A 1.94 1.93 76.5 0 1 256.38 83.88
  L 264.25 99.57
  Q 265.24 101.53 266.22 99.56
  L 274.06 83.79
  A 1.64 1.62 12.6 0 1 275.51 82.88
  L 289.50 82.80
  A 0.72 0.71 -0.0 0 1 290.22 83.51
  L 290.24 131.37
  A 1.47 1.46 0.2 0 1 288.76 132.83
  L 278.69 132.76
  A 1.13 1.12 90.0 0 1 277.58 131.64
  Q 277.54 119.98 277.51 108.95
  C 277.51 107.58 278.05 105.54 277.31 103.81
  A 0.40 0.40 0.0 0 0 276.58 103.79
  L 265.80 125.55
  A 0.61 0.61 0.0 0 1 264.72 125.56
  C 260.94 118.25 257.62 110.24 253.23 103.49
  Z"
/>
<path fill="#006547" d="
  M 96.92 161.35
  L 97.23 174.25
  Q 97.25 175.25 96.25 175.25
  L 88.55 175.30
  A 1.00 1.00 0.0 0 1 87.55 174.30
  L 87.52 140.47
  Q 87.52 139.21 88.78 139.20
  L 96.02 139.09
  Q 97.22 139.07 97.20 140.27
  L 96.88 154.55
  Q 96.85 155.89 97.72 154.86
  Q 98.88 153.48 99.88 151.36
  Q 102.65 145.46 105.34 140.14
  A 1.94 1.94 0.0 0 1 107.07 139.08
  L 114.17 139.12
  Q 115.33 139.12 114.80 140.16
  L 106.84 155.76
  A 3.18 3.16 45.2 0 0 106.84 158.65
  L 115.09 174.92
  A 0.23 0.23 0.0 0 1 114.88 175.26
  L 106.27 175.39
  A 0.65 0.65 0.0 0 1 105.69 175.03
  L 98.72 160.91
  Q 96.82 157.05 96.92 161.35
  Z"
/>
<path fill="#006547" d="
  M 139.32 162.82
  Q 139.32 162.06 138.56 162.05
  L 131.18 161.94
  A 0.88 0.88 0.0 0 0 130.29 162.82
  L 130.36 174.35
  A 0.96 0.96 0.0 0 1 129.40 175.32
  L 121.97 175.31
  Q 121.02 175.31 121.01 174.35
  Q 120.94 159.76 121.03 144.77
  Q 121.06 139.21 126.09 139.13
  Q 135.45 139.00 144.74 139.31
  C 147.85 139.41 148.32 142.36 148.36 145.25
  Q 148.58 159.63 148.63 174.27
  A 1.13 1.13 0.0 0 1 147.48 175.41
  L 140.52 175.30
  Q 139.26 175.28 139.26 174.02
  L 139.32 162.82
  Z
  M 139.4598 149.4321
  A 1.32 1.32 0.0 0 0 138.1261 148.1260
  L 131.6064 148.1943
  A 1.32 1.32 0.0 0 0 130.3003 149.5280
  L 130.3202 151.4279
  A 1.32 1.32 0.0 0 0 131.6539 152.7340
  L 138.1736 152.6657
  A 1.32 1.32 0.0 0 0 139.4797 151.3320
  L 139.4598 149.4321
  Z"
/>
<path fill="#006547" d="
  M 164.14 161.95
  A 1.40 1.40 0.0 0 0 163.35 163.24
  L 163.55 174.09
  Q 163.57 175.26 162.41 175.28
  L 155.41 175.43
  Q 154.19 175.46 154.19 174.23
  C 154.20 162.97 154.70 151.27 153.69 139.88
  Q 153.64 139.31 154.21 139.29
  Q 165.63 139.04 177.26 139.21
  Q 181.35 139.27 181.52 143.03
  Q 181.83 150.28 181.51 157.52
  Q 181.32 161.76 177.03 161.70
  A 1.32 1.32 0.0 0 0 175.84 163.64
  L 181.19 173.78
  Q 182.02 175.36 180.24 175.35
  L 174.16 175.32
  Q 172.35 175.31 171.57 173.68
  Q 169.08 168.52 166.14 162.83
  Q 165.38 161.35 164.14 161.95
  Z
  M 172.7151 149.7032
  A 1.48 1.48 0.0 0 0 171.2455 148.2129
  L 164.7056 148.1672
  A 1.48 1.48 0.0 0 0 163.2154 149.6369
  L 163.2049 151.1368
  A 1.48 1.48 0.0 0 0 164.6745 152.6271
  L 171.2144 152.6728
  A 1.48 1.48 0.0 0 0 172.7046 151.2031
  L 172.7151 149.7032
  Z"
/>
<path fill="#006547" d="
  M 195.75 148.19
  L 188.26 148.17
  A 1.01 1.01 0.0 0 1 187.26 147.13
  L 187.51 140.10
  A 1.01 1.01 0.0 0 1 188.51 139.13
  L 214.25 139.10
  A 1.01 1.01 0.0 0 1 215.26 140.11
  L 215.28 147.13
  A 1.01 1.01 0.0 0 1 214.27 148.14
  L 207.03 148.17
  A 1.01 1.01 0.0 0 0 206.02 149.18
  L 206.07 174.27
  A 1.01 1.01 0.0 0 1 205.05 175.29
  L 197.65 175.26
  A 1.01 1.01 0.0 0 1 196.64 174.25
  L 196.76 149.20
  A 1.01 1.01 0.0 0 0 195.75 148.19
  Z"
/>
</svg>
